<?xml version="1.0" encoding="utf-8"?>
<!-- Generator: Adobe Illustrator 17.1.0, SVG Export Plug-In . SVG Version: 6.00 Build 0)  -->
<!DOCTYPE svg PUBLIC "-//W3C//DTD SVG 1.1//EN" "http://www.w3.org/Graphics/SVG/1.1/DTD/svg11.dtd" [
	<!ENTITY ns_extend "http://ns.adobe.com/Extensibility/1.0/">
	<!ENTITY ns_ai "http://ns.adobe.com/AdobeIllustrator/10.0/">
	<!ENTITY ns_graphs "http://ns.adobe.com/Graphs/1.0/">
	<!ENTITY ns_vars "http://ns.adobe.com/Variables/1.0/">
	<!ENTITY ns_imrep "http://ns.adobe.com/ImageReplacement/1.0/">
	<!ENTITY ns_sfw "http://ns.adobe.com/SaveForWeb/1.0/">
	<!ENTITY ns_custom "http://ns.adobe.com/GenericCustomNamespace/1.0/">
	<!ENTITY ns_adobe_xpath "http://ns.adobe.com/XPath/1.0/">
]>
<svg version="1.1" id="Layer_1" xmlns:x="&ns_extend;" xmlns:i="&ns_ai;" xmlns:graph="&ns_graphs;"
	 xmlns="http://www.w3.org/2000/svg" xmlns:xlink="http://www.w3.org/1999/xlink" x="0px" y="0px" viewBox="0 0 280 280"
	 enable-background="new 0 0 280 280" xml:space="preserve">
<metadata>
	<sfw  xmlns="&ns_sfw;">
		<slices></slices>
		<sliceSourceBounds  height="179.4" width="179.4" y="-229.7" x="50.3" bottomLeftOrigin="true"></sliceSourceBounds>
	</sfw>
</metadata>
<g>
	<path fill="#1FAD57" d="M99.2,192.3c0,0-11.1-2.5-7-5.6s28.7-26.5,28.7-26.5s1.6-3.4-0.3-5.1c-2-1.6-10.3,2.9-21,3.1
		s-22.1-6.7-21.9-14.4s11.8-18.5,11.8-18.5s-6.7-13.4,5.7-19c17.2-5.7,36.4,18.7,36.4,18.7s-11.9-27.3,2.8-35.4s24.2,7.2,24.2,7.2
		s22-3.3,23.2,9.3c2.2,21.9-24.6,30-24.6,30s-1.5,1.7-0.3,2.6c2.6,1.9,5.7-1.8,15.8-4.6c10.2-2.8,29.8,4.9,29.6,15.9
		c-0.2,11-5.1,18.5-18.3,24.1c0,0,1.5,20.3-21.1,15.2c-9.2-2.3-22.3-24.4-22.3-24.4s-1.1-2.1-3.9,2.1c0,0-15,22.7-16.9,24.1
		S118.9,193.7,99.2,192.3z"/>
	<path fill="#F6EE3D" d="M140,55.5c46.7,0,84.5,37.8,84.5,84.5s-37.8,84.5-84.5,84.5S55.5,186.7,55.5,140S93.3,55.5,140,55.5
		 M140,50.3c-49.5,0-89.7,40.2-89.7,89.7c0,49.5,40.2,89.7,89.7,89.7s89.7-40.2,89.7-89.7C229.7,90.5,189.5,50.3,140,50.3L140,50.3z
		"/>
</g>
</svg>
