<?xml version="1.0" encoding="utf-8"?>
<!-- Generator: Adobe Illustrator 17.1.0, SVG Export Plug-In . SVG Version: 6.00 Build 0)  -->
<!DOCTYPE svg PUBLIC "-//W3C//DTD SVG 1.1//EN" "http://www.w3.org/Graphics/SVG/1.1/DTD/svg11.dtd" [
	<!ENTITY ns_extend "http://ns.adobe.com/Extensibility/1.0/">
	<!ENTITY ns_ai "http://ns.adobe.com/AdobeIllustrator/10.0/">
	<!ENTITY ns_graphs "http://ns.adobe.com/Graphs/1.0/">
	<!ENTITY ns_vars "http://ns.adobe.com/Variables/1.0/">
	<!ENTITY ns_imrep "http://ns.adobe.com/ImageReplacement/1.0/">
	<!ENTITY ns_sfw "http://ns.adobe.com/SaveForWeb/1.0/">
	<!ENTITY ns_custom "http://ns.adobe.com/GenericCustomNamespace/1.0/">
	<!ENTITY ns_adobe_xpath "http://ns.adobe.com/XPath/1.0/">
]>
<svg version="1.1" id="Layer_1" xmlns:x="&ns_extend;" xmlns:i="&ns_ai;" xmlns:graph="&ns_graphs;"
	 xmlns="http://www.w3.org/2000/svg" xmlns:xlink="http://www.w3.org/1999/xlink" x="0px" y="0px" viewBox="0 0 1003.5 265.8"
	 enable-background="new 0 0 1003.5 265.8" xml:space="preserve">
<metadata>
	<sfw  xmlns="&ns_sfw;">
		<slices></slices>
		<sliceSourceBounds  height="232" width="1003.5" y="-638.4" x="458.5" bottomLeftOrigin="true"></sliceSourceBounds>
	</sfw>
</metadata>
<g>
	<g>
		<path fill="#FFFFFF" d="M21,106.3c0,2.9,0,5.7,0,8.6c-1.1,0-2.3,0-3.4,0c1.3,4.9,2.6,9.7,3.9,14.6c2.1-7.8,4.2-15.5,6.3-23.3
			c3.3-0.1,6.7-0.1,10-0.2c2.1,7.4,4.1,14.9,6.2,22.3c1.1-4.1,2.2-8.2,3.3-12.2c0.2-0.7,0.1-1.2-0.3-1.4c-0.4-0.2-1.2-0.3-2.4-0.2
			c0-2.9,0-5.7,0-8.6c5.3-0.1,10.6-0.3,15.9-0.5c0,2.9,0,5.7,0,8.6c-1.4,0-2.4,0.3-3.1,0.7c-0.7,0.4-1.2,1.2-1.5,2.4
			c-2.6,9.4-5.2,18.9-7.8,28.3c-4.4,0.1-8.8,0.2-13.3,0.3c-1.6-5.7-3.1-11.4-4.7-17.1c-1.6,5.8-3.3,11.5-4.9,17.3
			c-4.4,0.1-8.7,0.1-13.1,0.2c-2.8-10.3-5.7-20.6-8.5-31c-1.2,0-2.3,0-3.5,0c0-2.9,0-5.7,0-8.6C7,106.4,14,106.4,21,106.3z"/>
		<path fill="#FFFFFF" d="M87,120.2c-0.6-2.4-1.2-4.9-1.9-7.3c-1.7,0.1-3.5,0.2-5.2,0.2c0,2.3,0,4.6,0,6.9c1.7-0.1,3.3-0.2,5-0.2
			c0,2.9,0,5.7,0,8.6c-1.7,0.1-3.3,0.2-5,0.2c0,2.3,0,4.5,0,6.8c1.8-0.1,3.6-0.2,5.3-0.3c0.1-0.5,0.2-1,0.3-1.5
			c0.5-2.2,1-4.4,1.5-6.6c2.2-0.1,4.4-0.2,6.7-0.3c0,5.6,0,11.2,0,16.8c-10.4,0.6-20.8,1-31.2,1.4c0-2.9,0-5.8,0-8.8
			c1.3,0,2.6-0.1,3.9-0.1c0-7.4,0-14.8,0-22.2c-1.3,0.1-2.6,0.1-3.9,0.1c0-2.9,0-5.7,0-8.6c10.3-0.4,20.6-0.9,31-1.4
			c0,5.3,0,10.6,0,16C91.4,119.9,89.2,120,87,120.2z"/>
		<path fill="#FFFFFF" d="M116.5,133.3c1.6-0.1,3.1-0.2,4.7-0.3c0.7-2.9,1.4-5.8,2.1-8.7c2.3-0.2,4.7-0.3,7-0.5c0,5.8,0,11.5,0,17.3
			c-10.4,0.7-20.7,1.4-31.1,2c0-2.9,0-5.8,0-8.8c1.2-0.1,2.3-0.1,3.5-0.2c0-7.4,0-14.8,0-22.2c-1.2,0.1-2.4,0.1-3.6,0.2
			c0-2.9,0-5.7,0-8.6c7.1-0.4,14.1-0.8,21.2-1.3c0,2.9,0,5.7,0,8.6c-1.3,0.1-2.5,0.2-3.8,0.2C116.5,118.5,116.5,125.9,116.5,133.3z"
			/>
		<path fill="#FFFFFF" d="M166.8,133.3c-0.2,0.2-0.5,0.4-0.7,0.6c-0.5,0.4-1.2,1-2.1,1.6c-0.9,0.6-2,1.3-3.2,1.9
			c-1.2,0.6-2.6,1.2-4.3,1.8c-1.7,0.5-3.4,0.9-5.1,1c-4,0.3-7.5-0.3-10.3-1.7c-2.8-1.5-5-3.7-6.3-6.6c-1.4-2.9-2.1-6.4-2.1-10.5
			c0-2.1,0.2-4.1,0.6-6c0.4-2,1-3.9,1.9-5.7c0.9-1.9,1.9-3.5,3.2-4.9c1.3-1.4,2.8-2.6,4.7-3.6c1.9-0.9,4-1.5,6.3-1.7
			c1.2-0.1,2.2-0.1,3.1-0.1c0.9,0,1.8,0.2,2.9,0.5c1.1,0.3,2,0.8,2.7,1.4c0.3-0.6,0.6-1.2,0.8-1.8c2.5-0.2,5.1-0.4,7.6-0.7
			c0,5.1,0,10.3,0,15.4c-2.4,0.2-4.9,0.4-7.3,0.6c0-0.9-0.1-1.7-0.3-2.5c-0.2-0.8-0.5-1.6-0.9-2.3c-0.4-0.7-1-1.2-1.8-1.6
			c-0.8-0.4-1.7-0.5-2.7-0.4c-0.8,0.1-1.5,0.2-2.1,0.5c-0.6,0.3-1.1,0.7-1.5,1.1c-0.4,0.4-0.7,1-1,1.6c-0.3,0.6-0.5,1.2-0.7,1.8
			c-0.1,0.6-0.3,1.3-0.3,2.1c-0.1,0.8-0.1,1.5-0.1,2c0,0.5,0,1.2,0,2c0,0.2,0,0.6,0,1.1c0,0.7,0,1.5,0,2.4c0,0.9,0.1,1.7,0.2,2.5
			c0.1,0.8,0.2,1.6,0.5,2.4c0.3,0.8,0.6,1.4,1,2c0.4,0.6,1,1,1.7,1.3c0.7,0.3,1.6,0.4,2.6,0.3c1.3-0.1,2.5-0.6,3.5-1.4
			c1-0.9,1.6-1.9,1.9-3.3c0.1-0.3,0.1-1.1,0.2-2.3c2.4-0.2,4.9-0.4,7.3-0.6C166.8,126.6,166.8,129.9,166.8,133.3z"/>
		<path fill="#FFFFFF" d="M210.1,114.3c0,3.8-0.9,7.4-2.6,10.7c-1.7,3.3-4.2,6-7.2,8.1c-3.1,2.1-6.5,3.3-10.2,3.7
			c-3.7,0.4-7.1-0.2-10.2-1.7c-3.1-1.5-5.5-3.7-7.2-6.7c-1.8-3-2.6-6.4-2.6-10.2c0-4.2,0.9-8,2.6-11.3c1.7-3.3,4.1-5.9,7.1-7.8
			c3-1.9,6.4-3,10.3-3.4c3.8-0.4,7.2,0.1,10.2,1.4c3,1.3,5.4,3.5,7.1,6.4C209.2,106.5,210.1,110.1,210.1,114.3z M190.1,128.2
			c0.6-0.1,1.2-0.2,1.7-0.5c0.5-0.3,0.9-0.6,1.3-1c0.3-0.4,0.7-0.9,0.9-1.4c0.3-0.5,0.5-1.1,0.6-1.7c0.1-0.6,0.3-1.2,0.4-1.9
			c0.1-0.6,0.2-1.3,0.2-1.9c0-0.6,0-1.3,0.1-1.9c0-0.6,0-1.2,0-1.8c0-0.3,0-0.6,0-0.7c0-0.2,0-0.5,0-0.9c0-0.6,0-1.2,0-1.9
			c0-0.7,0-1.3-0.1-2c-0.1-0.7-0.2-1.3-0.3-2c-0.1-0.6-0.3-1.2-0.5-1.8c-0.3-0.6-0.6-1-0.9-1.4c-0.4-0.4-0.8-0.7-1.4-0.9
			c-0.6-0.2-1.2-0.3-1.9-0.2c-0.6,0.1-1.2,0.2-1.7,0.5c-0.5,0.2-0.9,0.6-1.3,0.9c-0.3,0.4-0.6,0.8-0.9,1.3c-0.3,0.5-0.5,1-0.6,1.6
			c-0.1,0.6-0.3,1.1-0.4,1.7c-0.1,0.6-0.2,1.2-0.2,1.8c0,0.6,0,1.2-0.1,1.8c0,0.6,0,1.1,0,1.6c0,0.4,0,0.7,0,0.9c0,0.2,0,0.4,0,0.7
			c0,0.5,0,1,0,1.5c0,0.5,0,1.1,0,1.7c0,0.6,0.1,1.1,0.1,1.7c0,0.6,0.1,1.1,0.3,1.7c0.1,0.5,0.3,1,0.4,1.5c0.2,0.5,0.4,0.9,0.6,1.3
			c0.3,0.4,0.6,0.7,0.9,1c0.3,0.3,0.7,0.5,1.2,0.6C189,128.3,189.5,128.3,190.1,128.2z"/>
		<path fill="#FFFFFF" d="M225.1,119.3c0,0.3,0,0.6,0,0.7c0,0.1,0,0.4,0,0.7c0,0.3,0.1,0.5,0.1,0.7c0,0.1,0.1,0.3,0.2,0.6
			c0.1,0.2,0.2,0.4,0.3,0.5c0.1,0.1,0.3,0.2,0.5,0.4c0.2,0.1,0.4,0.2,0.7,0.3c0.3,0,0.6,0.1,0.9,0.1c0.4,0,0.8,0,1.2,0
			c0,2.9,0,5.8,0,8.8c-5.3,0.6-10.6,1.2-15.9,1.7c0-2.9,0-5.8,0-8.8c0.4,0,0.8-0.1,1.2-0.2c0.4-0.1,0.7-0.2,0.9-0.3
			c0.3-0.1,0.5-0.3,0.7-0.5c0.2-0.2,0.4-0.4,0.5-0.6c0.1-0.2,0.2-0.4,0.3-0.8c0.1-0.3,0.2-0.6,0.2-0.8c0-0.2,0.1-0.6,0.1-1
			c0-0.5,0-0.8,0-1.1c0-0.3,0-0.7,0-1.2c0-5.4,0-10.8,0-16.2c-1.4,0.1-2.7,0.3-4.1,0.4c0-2.9,0-5.7,0-8.6c6.8-0.7,13.6-1.5,20.4-2.2
			c2.5,6,5,11.9,7.6,17.9c2.2-6.5,4.5-13,6.7-19.5c6.4-0.8,12.8-1.5,19.1-2.3c0,2.9,0,5.7,0,8.6c-1.2,0.1-2.4,0.3-3.6,0.4
			c0,7.4,0,14.8,0,22.2c1.3-0.2,2.5-0.3,3.8-0.5c0,2.9,0,5.8,0,8.8c-6.5,0.8-13.1,1.6-19.6,2.4c0-2.9,0-5.8,0-8.8c1-0.1,2-0.2,3-0.4
			c0-5,0-10.1,0-15.1c-2.8,8.3-5.6,16.6-8.3,24.8c-2.3,0.3-4.6,0.5-6.9,0.8c-3.4-7.7-6.8-15.5-10.2-23.2
			C225.1,111.8,225.1,115.5,225.1,119.3z"/>
		<path fill="#FFFFFF" d="M296.3,100.1c-0.6-2.4-1.2-4.8-1.9-7.1c-1.7,0.2-3.5,0.5-5.2,0.7c0,2.3,0,4.6,0,6.9c1.7-0.2,3.3-0.4,5-0.7
			c0,2.9,0,5.7,0,8.6c-1.7,0.2-3.3,0.4-5,0.7c0,2.3,0,4.5,0,6.8c1.8-0.2,3.6-0.5,5.3-0.7c0.1-0.5,0.2-1,0.3-1.5
			c0.5-2.2,1-4.5,1.5-6.7c2.2-0.3,4.4-0.6,6.7-0.9c0,5.6,0,11.2,0,16.8c-10.4,1.4-20.8,2.8-31.2,4.1c0-2.9,0-5.8,0-8.8
			c1.3-0.2,2.6-0.3,3.9-0.5c0-7.4,0-14.8,0-22.2c-1.3,0.2-2.6,0.3-3.9,0.5c0-2.9,0-5.7,0-8.6c10.3-1.3,20.6-2.6,31-4
			c0,5.3,0,10.6,0,16C300.7,99.5,298.5,99.8,296.3,100.1z"/>
		<path fill="#FFFFFF" d="M347.2,93.1c-0.5-2.4-1-4.8-1.5-7.2c-0.9,0.1-1.7,0.2-2.6,0.4c0,7.4,0,14.8,0,22.2c1.3-0.2,2.7-0.4,4-0.6
			c0,2.9,0,5.9,0,8.8c-7.3,1-14.5,2.1-21.8,3.1c0-2.9,0-5.9,0-8.8c1.3-0.2,2.7-0.4,4-0.6c0-7.4,0-14.8,0-22.2
			c-0.8,0.1-1.6,0.2-2.4,0.3c-0.5,2.6-1,5.1-1.6,7.7c-2.3,0.3-4.6,0.6-6.9,1c0-5.3,0-10.7,0-16c11.9-1.6,23.7-3.3,35.6-5
			c0,5.3,0,10.7,0,16C351.8,92.4,349.5,92.7,347.2,93.1z"/>
		<path fill="#FFFFFF" d="M396.4,89.6c0,3.8-0.9,7.4-2.6,10.8c-1.7,3.4-4.2,6.2-7.2,8.4c-3.1,2.2-6.5,3.6-10.2,4.2
			c-3.7,0.6-7.1,0.2-10.2-1.2c-3.1-1.3-5.5-3.4-7.2-6.3c-1.8-2.9-2.6-6.2-2.6-10c0-4.2,0.9-8,2.6-11.4c1.7-3.4,4.1-6.1,7.1-8.2
			c3-2.1,6.4-3.4,10.3-4c3.8-0.6,7.2-0.3,10.2,0.9c3,1.2,5.4,3.2,7.1,6.1C395.5,81.9,396.4,85.4,396.4,89.6z M376.3,104.6
			c0.6-0.1,1.2-0.3,1.7-0.6c0.5-0.3,0.9-0.6,1.3-1.1c0.4-0.4,0.7-0.9,0.9-1.5c0.3-0.5,0.5-1.1,0.6-1.7c0.1-0.6,0.3-1.2,0.4-1.9
			c0.1-0.6,0.2-1.3,0.2-1.9c0-0.6,0-1.3,0.1-1.9c0-0.6,0-1.2,0-1.8c0-0.3,0-0.6,0-0.7c0-0.2,0-0.5,0-0.9c0-0.6,0-1.2,0-1.9
			c0-0.7,0-1.3-0.1-2c-0.1-0.7-0.2-1.3-0.3-2c-0.1-0.6-0.3-1.2-0.5-1.8c-0.3-0.5-0.6-1-0.9-1.4c-0.4-0.4-0.8-0.7-1.4-0.8
			c-0.6-0.2-1.2-0.2-1.9-0.1c-0.6,0.1-1.2,0.3-1.7,0.5c-0.5,0.3-0.9,0.6-1.3,1c-0.3,0.4-0.6,0.9-0.9,1.4c-0.3,0.5-0.5,1-0.6,1.6
			c-0.1,0.6-0.3,1.2-0.4,1.8c-0.1,0.6-0.2,1.2-0.2,1.8c0,0.6,0,1.2-0.1,1.8c0,0.6,0,1.1,0,1.6c0,0.4,0,0.7,0,0.9c0,0.2,0,0.4,0,0.7
			c0,0.5,0,1,0,1.5c0,0.5,0,1.1,0,1.7c0,0.6,0.1,1.1,0.1,1.7c0,0.6,0.1,1.1,0.3,1.6c0.1,0.5,0.3,1,0.4,1.5c0.2,0.5,0.4,0.9,0.6,1.3
			c0.3,0.4,0.6,0.7,0.9,0.9c0.3,0.3,0.7,0.4,1.2,0.5C375.3,104.6,375.8,104.7,376.3,104.6z"/>
		<path fill="#FFFFFF" d="M411.9,98.2c1.2-0.2,2.4-0.4,3.6-0.6c0-7.4,0-14.8,0-22.2c-1.2,0.2-2.4,0.4-3.6,0.6c0-2.9,0-5.7,0-8.6
			c6.6-1,13.2-2,19.8-3.1c0,2.9,0,5.7,0,8.6c-0.8,0.1-1.5,0.2-2.3,0.4c0,2.3,0,4.6,0,6.9c2.2-0.3,4.4-0.7,6.6-1c0-2.3,0-4.6,0-6.9
			c-0.7,0.1-1.4,0.2-2.1,0.3c0-2.9,0-5.7,0-8.6c6.5-1,13-2,19.5-3.1c0,2.9,0,5.7,0,8.6c-1.1,0.2-2.3,0.4-3.4,0.5
			c0,7.4,0,14.8,0,22.2c1.2-0.2,2.4-0.4,3.6-0.6c0,2.9,0,5.8,0,8.8c-6.5,1-13,2-19.5,3.1c0-2.9,0-5.8,0-8.8c0.7-0.1,1.4-0.2,2.1-0.3
			c0-2.2,0-4.5,0-6.7c-2.2,0.3-4.4,0.7-6.6,1c0,2.2,0,4.5,0,6.7c0.8-0.1,1.6-0.2,2.3-0.4c0,2.9,0,5.8,0,8.8c-6.6,1-13.2,2-19.8,3.1
			C411.9,104,411.9,101.1,411.9,98.2z"/>
		<path fill="#FFFFFF" d="M492.4,83.4c0.1,0.5,0.2,0.8,0.3,1.1c0.1,0.2,0.2,0.5,0.4,0.6c0.2,0.2,0.4,0.2,0.6,0.2
			c0.7-0.1,1.4-0.2,2.1-0.3c0,2.9,0,5.8,0,8.8c-6.7,1.1-13.4,2.1-20.2,3.2c0-2.9,0-5.8,0-8.8c1-0.2,2-0.3,2.9-0.5
			c0-2.7-0.5-3.9-1.6-3.7c-2.2,0.4-4.5,0.7-6.7,1.1c-0.2,0-0.4,0.1-0.5,0.3c-0.1,0.2-0.2,0.4-0.2,0.6c0,0.2,0,0.4,0,0.8
			c0,0.5,0.1,1,0.3,1.5c0.2,0.6,0.4,0.8,0.8,0.8c0.7-0.1,1.4-0.2,2.1-0.3c0,2.9,0,5.8,0,8.8c-5.5,0.9-11,1.7-16.6,2.6
			c0-2.9,0-5.8,0-8.8c0.7-0.1,1.4-0.3,1.9-0.5c1.3-0.5,2.2-1.4,2.7-2.7c0.2-0.4,0.5-1.5,0.9-3.3c1.4-5.7,2.8-11.5,4.2-17.2
			c-1.7,0.3-3.5,0.5-5.2,0.8c0-2.9,0-5.7,0-8.6c8.1-1.3,16.2-2.6,24.3-3.8C487.4,65.1,489.9,74.2,492.4,83.4z M476.5,78
			c-1-4-1.9-8-2.9-11.9c-0.9,4.3-1.8,8.6-2.7,12.8C472.7,78.6,474.6,78.3,476.5,78z"/>
		<path fill="#FFFFFF" d="M524.1,65.7c-0.5-2.4-1-4.8-1.5-7.2c-0.9,0.1-1.7,0.3-2.6,0.4c0,7.4,0,14.8,0,22.2c1.3-0.2,2.7-0.4,4-0.6
			c0,2.9,0,5.9,0,8.8c-7.3,1.2-14.5,2.3-21.8,3.5c0-2.9,0-5.9,0-8.8c1.3-0.2,2.7-0.4,4-0.6c0-7.4,0-14.8,0-22.2
			c-0.8,0.1-1.6,0.3-2.4,0.4c-0.5,2.6-1,5.1-1.6,7.7c-2.3,0.4-4.6,0.7-6.9,1.1c0-5.3,0-10.7,0-16c11.9-1.9,23.7-3.8,35.6-5.7
			c0,5.3,0,10.7,0,16C528.7,65,526.4,65.3,524.1,65.7z"/>
		<path fill="#FFFFFF" d="M561.6,59.8c-0.5-2.4-1-4.8-1.5-7.2c-0.9,0.1-1.7,0.3-2.6,0.4c0,7.4,0,14.8,0,22.2c1.3-0.2,2.7-0.4,4-0.6
			c0,2.9,0,5.9,0,8.8c-7.3,1.1-14.5,2.3-21.8,3.4c0-2.9,0-5.9,0-8.8c1.3-0.2,2.7-0.4,4-0.6c0-7.4,0-14.8,0-22.2
			c-0.8,0.1-1.6,0.3-2.4,0.4c-0.5,2.6-1,5.1-1.6,7.7c-2.3,0.4-4.6,0.7-6.9,1.1c0-5.3,0-10.7,0-16c11.9-1.9,23.7-3.8,35.6-5.6
			c0,5.3,0,10.7,0,16C566.2,59.1,563.9,59.4,561.6,59.8z"/>
		<path fill="#FFFFFF" d="M591.7,78.7c-4.3,0.7-10.9,1.7-19.8,3.1c0-2.9,0-5.9,0-8.8c1.3-0.2,2.5-0.4,3.8-0.6c0-7.4,0-14.8,0-22.2
			c-1.3,0.2-2.5,0.4-3.8,0.6c0-2.9,0-5.7,0-8.6c8.3-1.3,16.5-2.6,24.8-3.8c2-0.3,3.8-0.4,5.3-0.2c1.5,0.2,2.9,0.6,4.1,1.3
			c1.2,0.7,2,1.7,2.6,3c0.6,1.4,0.9,3,0.9,5c0,2.4-0.8,4.4-2.3,6.2c-1.5,1.7-3.7,3.1-6.5,4c2.4,0.2,4.2,0.7,5.2,1.5
			c1,0.8,1.6,2,1.6,3.5c0,0.8,0,1.5,0,2.3c0,0.5,0,0.8,0.1,1.1c0.1,0.3,0.2,0.5,0.5,0.7c0.3,0.2,0.7,0.3,1.2,0.4
			c0.5,0,1.3,0,2.2-0.2c0,2.9,0,5.8,0,8.8c-2.1,0.3-4.3,0.6-6.4,1c-0.6,0.1-1.1,0.2-1.5,0.2c-0.4,0-0.9,0.1-1.5,0.2
			c-0.6,0.1-1.1,0.1-1.5,0.1c-0.4,0-0.8-0.1-1.3-0.1c-0.5-0.1-0.9-0.2-1.2-0.3c-0.3-0.2-0.7-0.4-1-0.6c-0.3-0.3-0.6-0.6-0.8-1
			c-0.2-0.4-0.4-0.8-0.5-1.4c-0.1-0.5-0.2-1.1-0.2-1.8c0-1.6,0-3.2,0-4.8c0-1-0.1-1.8-0.2-2.4c-0.1-0.6-0.3-1.2-0.6-1.7
			c-0.3-0.5-0.8-0.9-1.4-1.1c-0.6-0.2-1.4-0.2-2.4,0c-0.8,0.1-1.6,0.2-2.4,0.4c0,2.7,0,5.5,0,8.2c1-0.2,2-0.3,3-0.5
			C591.7,72.8,591.7,75.7,591.7,78.7z M590.1,56.5c0.8-0.1,1.6-0.3,2.3-0.5c0.7-0.2,1.3-0.6,1.9-1c0.6-0.4,1.1-0.9,1.4-1.6
			c0.3-0.6,0.5-1.4,0.5-2.2c0-1.3-0.4-2.3-1.2-2.9c-0.8-0.6-2-0.9-3.4-0.6c-1,0.2-2,0.3-3,0.5c0,2.8,0,5.7,0,8.5
			C589.1,56.6,589.6,56.5,590.1,56.5z"/>
		<path fill="#FFFFFF" d="M636.2,40.9c-1.2,0.2-2.4,0.4-3.6,0.5c0,7.4,0,14.8,0,22.2c1.1-0.2,2.3-0.3,3.4-0.5c0,2.9,0,5.8,0,8.8
			c-7,1-14,2.1-21,3.1c0-2.9,0-5.8,0-8.8c1.2-0.2,2.4-0.4,3.6-0.5c0-7.4,0-14.8,0-22.2c-1.2,0.2-2.3,0.4-3.5,0.5c0-2.9,0-5.7,0-8.6
			c7-1.1,14.1-2.1,21.1-3.2C636.2,35.2,636.2,38.1,636.2,40.9z"/>
		<path fill="#FFFFFF" d="M673.8,61.6c-0.2,0.2-0.5,0.5-0.7,0.7c-0.5,0.5-1.2,1-2.1,1.7c-0.9,0.7-2,1.4-3.2,2.1
			c-1.2,0.7-2.6,1.4-4.3,2c-1.7,0.6-3.4,1.1-5.1,1.3c-4,0.6-7.5,0.2-10.3-1.1c-2.8-1.3-5-3.3-6.3-6.2c-1.4-2.8-2.1-6.3-2.1-10.4
			c0-2.1,0.2-4.1,0.6-6.1c0.4-2,1-4,1.9-5.9c0.9-1.9,1.9-3.6,3.2-5.2c1.3-1.5,2.8-2.8,4.7-3.9c1.9-1.1,4-1.8,6.3-2.1
			c1.2-0.2,2.2-0.3,3.1-0.3c0.9,0,1.8,0,2.9,0.3c1.1,0.2,2,0.6,2.7,1.2c0.3-0.6,0.6-1.2,0.8-1.9c2.5-0.4,5.1-0.7,7.6-1.1
			c0,5.1,0,10.3,0,15.4c-2.4,0.3-4.9,0.7-7.3,1c0-0.9-0.1-1.7-0.3-2.5c-0.2-0.8-0.5-1.5-0.9-2.2c-0.4-0.7-1-1.2-1.8-1.5
			c-0.8-0.3-1.7-0.4-2.7-0.3c-0.8,0.1-1.5,0.3-2.1,0.7c-0.6,0.3-1.1,0.7-1.5,1.2c-0.4,0.4-0.7,1-1,1.7c-0.3,0.7-0.5,1.3-0.7,1.9
			c-0.1,0.6-0.3,1.3-0.3,2.1c-0.1,0.8-0.1,1.5-0.1,2c0,0.5,0,1.2,0,2c0,0.2,0,0.6,0,1.1c0,0.7,0,1.5,0,2.4c0,0.8,0.1,1.7,0.2,2.5
			c0.1,0.8,0.2,1.6,0.5,2.4c0.3,0.7,0.6,1.4,1.1,1.9c0.4,0.5,1,0.9,1.7,1.2c0.7,0.3,1.6,0.3,2.6,0.2c1.3-0.2,2.5-0.7,3.5-1.7
			c1-0.9,1.6-2,1.9-3.4c0.1-0.3,0.1-1.1,0.2-2.3c2.4-0.3,4.9-0.7,7.3-1C673.8,54.9,673.8,58.3,673.8,61.6z"/>
		<path fill="#FFFFFF" d="M678.3,26.3c6.7-0.9,13.4-1.8,20-2.7c0,2.9,0,5.7,0,8.6c-1,0.1-2.1,0.3-3.1,0.4c0,3.1,0,6.2,0,9.4
			c2.3-3.4,4.7-6.9,7-10.3c0-2.9,0-5.7,0-8.6c5.1-0.7,10.2-1.4,15.2-2c0,2.9,0,5.7,0,8.6c-1.1,0.1-2.2,0.3-3.3,0.4
			c-2.6,3.6-5.2,7.3-7.8,10.9c0,0.1,0,0.2,0,0.3c1.3-0.2,2.4-0.2,3.4-0.2c1,0.1,1.9,0.3,2.6,0.6c0.8,0.3,1.4,0.9,1.8,1.6
			c0.4,0.8,0.6,1.7,0.6,2.9c0,1.1,0,2.3,0,3.4c0,0.6,0.1,1.1,0.4,1.6c0.3,0.5,0.7,0.7,1.2,0.7c0.7-0.1,1.5-0.2,2.2-0.3
			c0,2.9,0.1,5.8,0.1,8.7c-2.8,0.4-5.7,0.7-8.5,1.1c-5.5,0.7-8.2-1.4-8.2-6.4c0-1.5,0-3,0-4.5c0-0.8-0.3-1.5-0.8-2.3
			c-0.5-0.7-1.2-1.1-1.9-1c-1.4,0.2-2.8,0.4-4.2,0.6c0,2.3,0,4.6,0,6.9c1-0.1,2.1-0.3,3.1-0.4c0,2.6,0.1,5.3,0.1,7.9
			c0,0.3,0,0.6,0,0.9c-6.7,0.9-13.5,1.8-20.2,2.8c0-2.9,0-5.8,0-8.8c1.2-0.2,2.4-0.3,3.6-0.5c0-7.4,0-14.8,0-22.2
			c-1.2,0.2-2.4,0.3-3.6,0.5C678.3,32,678.3,29.2,678.3,26.3z"/>
		<path fill="#FFFFFF" d="M748,17.2c0,4.2,0,8.4,0,12.6c-2.5,0.3-5,0.6-7.5,0.9c-0.3-1.2-0.9-2.3-2-3.1c-1-0.9-2.1-1.2-3.3-1
			c-0.7,0.1-1.3,0.3-1.7,0.8c-0.4,0.4-0.6,1-0.6,1.8c0,0.5,0.2,0.9,0.6,1.2c0.4,0.3,0.9,0.5,1.6,0.7c0.7,0.2,1.5,0.3,2.4,0.5
			c0.9,0.1,1.8,0.3,2.8,0.5c1,0.2,2,0.5,3,0.8c1,0.3,1.9,0.8,2.8,1.4c0.9,0.6,1.7,1.3,2.4,2.2c0.7,0.8,1.3,1.9,1.7,3.2
			c0.4,1.3,0.7,2.8,0.7,4.5c0,1.7-0.2,3.3-0.8,5c-0.6,1.6-1.3,3.1-2.3,4.5c-1,1.3-2.2,2.5-3.7,3.4c-1.5,0.9-3.1,1.5-4.8,1.7
			c-1.8,0.2-3.2,0.2-4.4-0.1c-1.2-0.3-2.4-0.9-3.6-1.8c-0.3,0.8-0.6,1.6-0.9,2.4c-2.6,0.3-5.3,0.7-7.9,1c0-4.2,0-8.4,0-12.6
			c2.6-0.3,5.2-0.7,7.9-1c0.4,1.1,1.2,2.1,2.3,2.9c1.1,0.8,2.2,1.1,3.4,0.9c0.7-0.1,1.3-0.3,1.9-0.8c0.5-0.4,0.8-1,0.8-1.6
			c0-0.6-0.2-1-0.5-1.4c-0.4-0.4-0.7-0.6-1.1-0.7c-0.4-0.1-0.9-0.2-1.5-0.3c-1-0.2-1.8-0.3-2.5-0.5c-0.7-0.1-1.5-0.3-2.3-0.5
			c-0.8-0.2-1.6-0.5-2.2-0.7c-0.6-0.3-1.3-0.6-1.9-0.9c-0.7-0.4-1.2-0.8-1.7-1.2c-0.5-0.4-0.9-1-1.3-1.6c-0.4-0.6-0.8-1.3-1-2
			c-0.3-0.7-0.5-1.5-0.6-2.4c-0.2-0.9-0.2-1.9-0.2-3c0-3.9,0.9-7.1,2.8-9.6c1.9-2.5,4.7-4,8.3-4.5c3.1-0.4,5.7,0,7.6,1.3
			c0.1-0.2,0.3-0.7,0.8-1.6C743.3,17.7,745.7,17.4,748,17.2z"/>
		<path fill="#FFFFFF" d="M793.5,28.1c-0.5-2.4-1-4.9-1.5-7.3c-0.9,0.1-1.7,0.2-2.6,0.3c0,7.4,0,14.8,0,22.2c1.3-0.1,2.7-0.3,4-0.4
			c0,2.9,0,5.9,0,8.8c-7.3,0.8-14.5,1.6-21.8,2.4c0-2.9,0-5.9,0-8.8c1.3-0.2,2.7-0.3,4-0.5c0-7.4,0-14.8,0-22.2
			c-0.8,0.1-1.6,0.2-2.4,0.3c-0.5,2.5-1,5.1-1.6,7.6c-2.3,0.3-4.6,0.5-6.9,0.8c0-5.3,0-10.7,0-16c11.9-1.4,23.7-2.7,35.6-3.9
			c0,5.3,0,10.7,0,16C798.1,27.6,795.8,27.8,793.5,28.1z"/>
		<path fill="#FFFFFF" d="M837.2,36.5c0.1,0.5,0.2,0.9,0.3,1.1c0.1,0.3,0.2,0.5,0.4,0.7c0.2,0.2,0.4,0.3,0.6,0.3
			c0.7-0.1,1.4-0.1,2.1-0.2c0,2.9,0,5.8,0,8.8c-6.7,0.6-13.4,1.2-20.2,1.8c0-2.9,0-5.8,0-8.8c1-0.1,2-0.2,2.9-0.3
			c0-2.7-0.5-4-1.6-3.9c-2.2,0.2-4.5,0.4-6.7,0.6c-0.2,0-0.4,0.1-0.5,0.3c-0.1,0.2-0.2,0.4-0.2,0.5c0,0.2,0,0.4,0,0.8
			c0,0.5,0.1,1,0.3,1.5c0.2,0.6,0.4,0.8,0.8,0.8c0.7-0.1,1.4-0.1,2.1-0.2c0,2.9,0,5.8,0,8.8c-5.5,0.5-11,1.1-16.6,1.6
			c0-2.9,0-5.8,0-8.8c0.7-0.1,1.4-0.2,1.9-0.4c1.3-0.4,2.2-1.3,2.7-2.6c0.2-0.4,0.5-1.5,0.9-3.2c1.4-5.7,2.8-11.3,4.2-17
			c-1.7,0.2-3.5,0.3-5.2,0.5c0-2.9,0-5.7,0-8.6c8.1-0.8,16.2-1.6,24.3-2.3C832.2,17.8,834.7,27.1,837.2,36.5z M821.3,30
			c-1-4-1.9-8.1-2.9-12.1c-0.9,4.2-1.8,8.4-2.7,12.7C817.6,30.3,819.4,30.2,821.3,30z"/>
		<path fill="#FFFFFF" d="M862.1,32.7c1.4-4.7,2.9-9.4,4.3-14.1c0.3-1,0.4-1.8,0.4-2.5c0-0.7-0.3-1.2-0.9-1.5
			c-0.6-0.3-1.5-0.5-2.7-0.4c0-2.9,0-5.7,0-8.6c5.6-0.4,11.3-0.8,16.9-1.2c0,2.9,0,5.7,0,8.6c-0.4,0-0.8,0.1-1.2,0.1
			c-0.4,0.1-0.7,0.2-1,0.3c-0.3,0.1-0.5,0.3-0.7,0.4c-0.2,0.1-0.4,0.3-0.6,0.6c-0.2,0.3-0.4,0.5-0.5,0.7c-0.1,0.2-0.2,0.4-0.4,0.8
			c-0.2,0.4-0.3,0.7-0.3,0.9c-0.1,0.2-0.2,0.6-0.4,1.1c-0.2,0.5-0.3,0.9-0.4,1.2c-2.9,8.6-5.8,17.2-8.6,25.8
			c-4.8,0.4-9.5,0.7-14.3,1.1c-2.9-10.1-5.9-20.2-8.8-30.3c-1.4,0.1-2.7,0.2-4.1,0.4c0-2.9,0-5.7,0-8.6c7-0.6,14.1-1.2,21.1-1.7
			c0,2.9,0,5.7,0,8.6c-0.9,0.1-1.9,0.1-2.8,0.2C858.8,20.7,860.5,26.7,862.1,32.7z"/>
		<path fill="#FFFFFF" d="M906.6,18.8c-0.6-2.4-1.2-4.8-1.9-7.3c-1.7,0.1-3.5,0.2-5.2,0.3c0,2.3,0,4.6,0,6.9c1.7-0.1,3.3-0.2,5-0.3
			c0,2.9,0,5.7,0,8.6c-1.7,0.1-3.3,0.2-5,0.3c0,2.3,0,4.5,0,6.8c1.8-0.1,3.6-0.2,5.3-0.3c0.1-0.5,0.2-1,0.3-1.5
			c0.5-2.2,1-4.4,1.5-6.6c2.2-0.1,4.4-0.2,6.7-0.4c0,5.6,0,11.2,0,16.8c-10.4,0.5-20.8,1.2-31.2,1.9c0-2.9,0-5.8,0-8.8
			c1.3-0.1,2.6-0.2,3.9-0.3c0-7.4,0-14.8,0-22.2c-1.3,0.1-2.6,0.2-3.9,0.3c0-2.9,0-5.7,0-8.6c10.3-0.7,20.6-1.3,31-1.9
			c0,5.3,0,10.6,0,16C911,18.5,908.8,18.6,906.6,18.8z"/>
		<path fill="#FFFFFF" d="M938.4,40.9c-4.3,0.2-10.9,0.4-19.8,0.9c0-2.9,0-5.9,0-8.8c1.3-0.1,2.5-0.1,3.8-0.2c0-7.4,0-14.8,0-22.2
			c-1.3,0.1-2.5,0.1-3.8,0.2c0-2.9,0-5.7,0-8.6c8.3-0.4,16.5-0.8,24.8-1.1c2-0.1,3.8,0.1,5.3,0.4c1.5,0.3,2.9,0.9,4.1,1.7
			c1.2,0.8,2,1.9,2.6,3.4c0.6,1.4,0.9,3.1,0.9,5.1c0,2.4-0.8,4.3-2.3,5.9c-1.5,1.6-3.7,2.6-6.5,3.3c2.4,0.5,4.2,1.2,5.2,2.2
			c1,1,1.6,2.2,1.6,3.7c0,0.8,0,1.5,0,2.3c0,0.5,0,0.8,0.1,1.1c0.1,0.3,0.2,0.5,0.5,0.8c0.3,0.2,0.7,0.4,1.2,0.5
			c0.5,0.1,1.3,0.1,2.2,0.1c0,2.9,0,5.8,0,8.8c-2.1,0.1-4.3,0.1-6.4,0.2c-0.6,0-1.1,0-1.5,0c-0.4,0-0.9,0-1.5,0
			c-0.6,0-1.1,0-1.5-0.1c-0.4-0.1-0.8-0.2-1.3-0.3c-0.5-0.1-0.9-0.3-1.2-0.5c-0.3-0.2-0.7-0.4-1-0.7c-0.3-0.3-0.6-0.7-0.8-1.1
			c-0.2-0.4-0.4-0.9-0.5-1.4c-0.1-0.6-0.2-1.2-0.2-1.8c0-1.6,0-3.2,0-4.8c0-1-0.1-1.8-0.2-2.4c-0.1-0.6-0.3-1.2-0.6-1.8
			c-0.3-0.6-0.8-1-1.4-1.2c-0.6-0.3-1.4-0.4-2.4-0.3c-0.8,0-1.6,0.1-2.4,0.1c0,2.7,0,5.5,0,8.2c1,0,2-0.1,3-0.1
			C938.4,35,938.4,38,938.4,40.9z M936.8,18.5c0.8,0,1.6-0.1,2.3-0.3c0.7-0.2,1.3-0.4,1.9-0.7c0.6-0.3,1.1-0.8,1.4-1.4
			c0.3-0.6,0.5-1.3,0.5-2.1c0-1.3-0.4-2.3-1.2-3c-0.8-0.7-2-1.1-3.4-1c-1,0-2,0.1-3,0.1c0,2.8,0,5.7,0,8.5
			C935.8,18.5,936.3,18.5,936.8,18.5z"/>
		<path fill="#FFFFFF" d="M1003.5,8.6c-1.4,0-2.4,0.3-3,1c-0.6,0.6-0.9,1.6-0.9,2.8c0,9.1,0,18.2,0,27.3c-4.9,0-9.9,0-14.8,0.1
			c-3.8-7.3-7.7-14.7-11.5-22c0,3.3,0,6.5,0,9.8c0,1.3,0.3,2.3,0.9,2.8c0.6,0.5,1.6,0.8,3,0.8c0,2.9,0,5.8,0,8.8
			c-5.2,0.1-10.4,0.2-15.6,0.3c0-2.9,0-5.8,0-8.8c0.7,0,1.4-0.1,1.9-0.3c0.5-0.2,0.9-0.4,1.2-0.7c0.3-0.3,0.5-0.6,0.6-1.1
			c0.1-0.5,0.2-0.9,0.3-1.2c0-0.4,0-0.8,0-1.5c0-5.9,0-11.8,0-17.6c-1.3,0-2.6,0.1-3.8,0.1c0-2.9,0-5.7,0-8.6c6-0.2,12-0.3,17.9-0.4
			c4,7.9,8.1,15.8,12.1,23.7c0-3.8,0-7.6,0-11.5c0-0.4,0-0.7,0-0.9c0-0.2,0-0.5-0.1-0.8c-0.1-0.4-0.2-0.7-0.3-0.9
			c-0.2-0.2-0.4-0.4-0.6-0.6c-0.3-0.2-0.6-0.4-1.1-0.4c-0.5-0.1-1-0.1-1.7-0.1c0-2.9,0-5.7,0-8.6c5.2,0,10.4-0.1,15.6-0.1
			C1003.5,2.9,1003.5,5.7,1003.5,8.6z"/>
	</g>
	<g>
		<g>
			<path fill="#DBDBDB" d="M288.6,160.1c-0.4-1.7-0.7-3.5-1.1-5.2c-0.6,0.1-1.2,0.2-1.9,0.2c0,5.3,0,10.7,0,16
				c1-0.1,1.9-0.2,2.9-0.4c0,2.1,0,4.2,0,6.3c-5.2,0.7-10.4,1.4-15.7,2c0-2.1,0-4.2,0-6.3c1-0.1,1.9-0.2,2.9-0.4c0-5.3,0-10.7,0-16
				c-0.6,0.1-1.2,0.1-1.8,0.2c-0.4,1.8-0.8,3.7-1.1,5.5c-1.6,0.2-3.3,0.4-4.9,0.6c0-3.8,0-7.7,0-11.5c8.5-1.1,17.1-2.2,25.6-3.3
				c0,3.8,0,7.7,0,11.5C291.9,159.7,290.2,159.9,288.6,160.1z"/>
			<path fill="#DBDBDB" d="M296,169.8c0.9-0.1,1.7-0.2,2.6-0.3c0-5.3,0-10.7,0-16c-0.9,0.1-1.7,0.2-2.6,0.3c0-2.1,0-4.1,0-6.2
				c4.7-0.6,9.5-1.3,14.2-1.9c0,2.1,0,4.1,0,6.2c-0.6,0.1-1.1,0.2-1.7,0.2c0,1.7,0,3.3,0,5c1.6-0.2,3.2-0.4,4.7-0.6c0-1.7,0-3.3,0-5
				c-0.5,0.1-1,0.1-1.5,0.2c0-2.1,0-4.1,0-6.2c4.7-0.6,9.4-1.3,14-1.9c0,2.1,0,4.1,0,6.2c-0.8,0.1-1.7,0.2-2.5,0.3
				c0,5.3,0,10.7,0,16c0.9-0.1,1.7-0.2,2.6-0.4c0,2.1,0,4.2,0,6.3c-4.7,0.7-9.4,1.3-14.1,1.9c0-2.1,0-4.2,0-6.3
				c0.5-0.1,1-0.1,1.5-0.2c0-1.6,0-3.2,0-4.9c-1.6,0.2-3.2,0.4-4.7,0.6c0,1.6,0,3.2,0,4.9c0.6-0.1,1.1-0.2,1.7-0.2
				c0,2.1,0,4.2,0,6.3c-4.7,0.6-9.5,1.3-14.2,1.9C296,174,296,171.9,296,169.8z"/>
			<path fill="#DBDBDB" d="M347.1,152c-0.4-1.7-0.9-3.4-1.3-5.1c-1.2,0.2-2.5,0.4-3.7,0.5c0,1.7,0,3.3,0,5c1.2-0.2,2.4-0.3,3.6-0.5
				c0,2.1,0,4.1,0,6.2c-1.2,0.2-2.4,0.3-3.6,0.5c0,1.6,0,3.2,0,4.9c1.3-0.2,2.6-0.4,3.8-0.6c0.1-0.4,0.2-0.7,0.2-1.1
				c0.4-1.6,0.7-3.2,1.1-4.9c1.6-0.2,3.2-0.5,4.8-0.7c0,4,0,8.1,0,12.1c-7.5,1.1-15,2.2-22.5,3.2c0-2.1,0-4.2,0-6.3
				c0.9-0.1,1.9-0.3,2.8-0.4c0-5.3,0-10.7,0-16c-0.9,0.1-1.9,0.3-2.8,0.4c0-2.1,0-4.1,0-6.2c7.4-1,14.9-2.1,22.3-3.2
				c0,3.8,0,7.7,0,11.5C350.2,151.6,348.6,151.8,347.1,152z"/>
			<path fill="#DBDBDB" d="M363.9,160.3c1-0.1,2-0.3,3-0.4c0-5.3,0-10.7,0-16c-1,0.1-1.9,0.3-2.9,0.4c0-2.1,0-4.1,0-6.2
				c4.8-0.7,9.5-1.4,14.3-2.1c1.4-0.2,2.7-0.3,3.8-0.4c1.1,0,2.1,0,3.1,0.2c1,0.2,1.8,0.5,2.4,1c0.6,0.5,1.1,1.1,1.5,1.9
				c0.4,0.8,0.5,1.8,0.5,3c0,1.5-0.4,2.8-1.2,4c-0.8,1.2-1.8,2.2-3.1,2.9c0,0,0,0,0,0c1.8,0.2,3.1,0.9,4.1,2c1,1.1,1.4,2.7,1.4,4.7
				c0,1.3-0.3,2.5-0.8,3.5c-0.5,1-1.2,1.9-2.2,2.6c-0.9,0.7-2,1.3-3.2,1.7c-1.2,0.5-2.6,0.8-4.1,1c-5.5,0.8-11,1.6-16.6,2.5
				C363.9,164.5,363.9,162.4,363.9,160.3z M376.2,147.9c0.2,0,0.5-0.1,0.7-0.1c0.6-0.1,1.1-0.2,1.5-0.3c0.4-0.1,0.8-0.3,1.2-0.6
				c0.4-0.3,0.7-0.6,0.9-1c0.2-0.4,0.3-1,0.3-1.6c0-0.8-0.2-1.4-0.7-1.7c-0.5-0.4-1-0.5-1.7-0.4c-0.7,0.1-1.5,0.2-2.2,0.3
				C376.2,144.3,376.2,146.1,376.2,147.9z M376.2,152.5c0,2,0,4,0,6c0.1,0,0.2,0,0.4-0.1c0.2,0,0.5-0.1,0.7-0.1
				c0.2,0,0.5-0.1,0.7-0.1c0.2,0,0.4-0.1,0.6-0.2c0.2-0.1,0.4-0.1,0.6-0.2c0.2-0.1,0.4-0.2,0.5-0.3c0.2-0.1,0.3-0.2,0.4-0.3
				c0.1-0.1,0.3-0.3,0.4-0.4c0.1-0.2,0.2-0.3,0.3-0.5c0.1-0.2,0.1-0.4,0.2-0.7c0-0.3,0.1-0.5,0.1-0.8c0-0.5-0.1-1-0.2-1.3
				c-0.2-0.4-0.4-0.6-0.6-0.8c-0.2-0.2-0.5-0.3-0.8-0.4c-0.3-0.1-0.6-0.1-0.9-0.1c-0.3,0-0.6,0-0.9,0.1
				C377.4,152.3,377,152.4,376.2,152.5z"/>
			<path fill="#DBDBDB" d="M411,142.5c-0.4-1.7-0.9-3.4-1.3-5.1c-1.2,0.2-2.5,0.4-3.7,0.6c0,1.7,0,3.3,0,5c1.2-0.2,2.4-0.4,3.6-0.6
				c0,2.1,0,4.1,0,6.2c-1.2,0.2-2.4,0.4-3.6,0.6c0,1.6,0,3.2,0,4.9c1.3-0.2,2.6-0.4,3.8-0.6c0.1-0.4,0.2-0.7,0.2-1.1
				c0.4-1.6,0.7-3.2,1.1-4.9c1.6-0.2,3.2-0.5,4.8-0.7c0,4,0,8.1,0,12.1c-7.5,1.2-15,2.3-22.5,3.4c0-2.1,0-4.2,0-6.3
				c0.9-0.1,1.9-0.3,2.8-0.4c0-5.3,0-10.7,0-16c-0.9,0.1-1.9,0.3-2.8,0.4c0-2.1,0-4.1,0-6.2c7.4-1.1,14.9-2.3,22.3-3.4
				c0,3.8,0,7.7,0,11.5C414.1,142,412.5,142.2,411,142.5z"/>
			<path fill="#DBDBDB" d="M438.2,126.8c0,3,0,6,0,9.1c-1.8,0.3-3.6,0.6-5.4,0.8c-0.2-0.9-0.7-1.6-1.4-2.2c-0.7-0.6-1.5-0.8-2.4-0.7
				c-0.5,0.1-0.9,0.3-1.2,0.6c-0.3,0.3-0.4,0.7-0.4,1.3c0,0.4,0.1,0.6,0.4,0.8c0.3,0.2,0.7,0.4,1.2,0.5c0.5,0.1,1.1,0.2,1.7,0.3
				c0.6,0.1,1.3,0.2,2,0.3c0.7,0.1,1.4,0.3,2.1,0.5c0.7,0.2,1.4,0.5,2,0.9c0.6,0.4,1.2,0.9,1.7,1.5c0.5,0.6,0.9,1.3,1.2,2.3
				c0.3,0.9,0.5,2,0.5,3.2c0,1.2-0.2,2.4-0.6,3.6c-0.4,1.2-1,2.3-1.7,3.3c-0.7,1-1.6,1.8-2.7,2.5c-1.1,0.7-2.2,1.1-3.5,1.3
				c-1.3,0.2-2.3,0.2-3.2,0c-0.8-0.2-1.7-0.6-2.6-1.2c-0.2,0.6-0.4,1.1-0.6,1.7c-1.9,0.3-3.8,0.6-5.7,0.9c0-3,0-6.1,0-9.1
				c1.9-0.3,3.8-0.6,5.7-0.9c0.3,0.8,0.8,1.5,1.6,2c0.8,0.5,1.6,0.7,2.5,0.6c0.5-0.1,1-0.3,1.3-0.6c0.4-0.3,0.6-0.7,0.6-1.2
				c0-0.4-0.1-0.7-0.4-1c-0.3-0.2-0.5-0.4-0.8-0.5c-0.3-0.1-0.7-0.1-1.1-0.2c-0.7-0.1-1.3-0.2-1.8-0.3c-0.5-0.1-1.1-0.2-1.7-0.3
				c-0.6-0.1-1.1-0.3-1.6-0.5c-0.5-0.2-0.9-0.4-1.4-0.6c-0.5-0.3-0.9-0.5-1.2-0.8c-0.3-0.3-0.7-0.7-1-1.1s-0.6-0.9-0.7-1.4
				c-0.2-0.5-0.3-1.1-0.4-1.7c-0.1-0.7-0.2-1.4-0.2-2.1c0-2.8,0.7-5.1,2-7c1.4-1.9,3.4-3,6-3.4c2.3-0.4,4.1-0.1,5.5,0.7
				c0-0.1,0.2-0.5,0.6-1.1C434.9,127.3,436.5,127,438.2,126.8z"/>
			<path fill="#DBDBDB" d="M462.3,134.5c-0.4-1.7-0.7-3.5-1.1-5.2c-0.6,0.1-1.2,0.2-1.9,0.3c0,5.3,0,10.7,0,16
				c1-0.2,1.9-0.3,2.9-0.5c0,2.1,0,4.2,0,6.3c-5.2,0.8-10.4,1.6-15.7,2.5c0-2.1,0-4.2,0-6.3c1-0.2,1.9-0.3,2.9-0.5
				c0-5.3,0-10.7,0-16c-0.6,0.1-1.2,0.2-1.8,0.3c-0.4,1.8-0.8,3.7-1.1,5.5c-1.6,0.3-3.3,0.5-4.9,0.8c0-3.8,0-7.7,0-11.5
				c8.5-1.3,17.1-2.7,25.6-4c0,3.8,0,7.7,0,11.5C465.6,134,464,134.3,462.3,134.5z"/>
			<path fill="#DBDBDB" d="M496.8,117.5c0,3,0,6,0,9.1c-1.8,0.3-3.6,0.6-5.4,0.9c-0.2-0.9-0.7-1.6-1.4-2.2c-0.7-0.6-1.5-0.8-2.4-0.7
				c-0.5,0.1-0.9,0.3-1.2,0.6c-0.3,0.3-0.4,0.7-0.4,1.3c0,0.4,0.1,0.6,0.4,0.8c0.3,0.2,0.7,0.4,1.2,0.5c0.5,0.1,1.1,0.2,1.7,0.3
				c0.6,0.1,1.3,0.2,2,0.3c0.7,0.1,1.4,0.3,2.1,0.5c0.7,0.2,1.4,0.5,2,0.9c0.6,0.4,1.2,0.9,1.7,1.5c0.5,0.6,0.9,1.3,1.2,2.3
				c0.3,0.9,0.5,2,0.5,3.2c0,1.2-0.2,2.4-0.6,3.6c-0.4,1.2-1,2.3-1.7,3.3c-0.7,1-1.6,1.8-2.7,2.5c-1.1,0.7-2.2,1.2-3.5,1.3
				c-1.3,0.2-2.3,0.2-3.2,0c-0.8-0.2-1.7-0.6-2.6-1.2c-0.2,0.6-0.4,1.1-0.6,1.7c-1.9,0.3-3.8,0.6-5.7,0.9c0-3,0-6.1,0-9.1
				c1.9-0.3,3.8-0.6,5.7-0.9c0.3,0.8,0.8,1.5,1.6,2c0.8,0.5,1.6,0.7,2.5,0.6c0.5-0.1,1-0.3,1.3-0.6c0.4-0.3,0.6-0.7,0.6-1.2
				c0-0.4-0.1-0.7-0.4-1c-0.3-0.2-0.5-0.4-0.8-0.5c-0.3-0.1-0.7-0.1-1.1-0.2c-0.7-0.1-1.3-0.2-1.8-0.3c-0.5-0.1-1.1-0.2-1.7-0.3
				c-0.6-0.1-1.1-0.3-1.6-0.5c-0.5-0.2-0.9-0.4-1.4-0.6c-0.5-0.3-0.9-0.5-1.2-0.8c-0.3-0.3-0.7-0.7-1-1.1c-0.3-0.4-0.6-0.9-0.7-1.4
				c-0.2-0.5-0.3-1.1-0.4-1.7c-0.1-0.7-0.2-1.4-0.2-2.1c0-2.8,0.7-5.1,2-7c1.4-1.9,3.4-3,6-3.4c2.3-0.4,4.1-0.1,5.5,0.7
				c0-0.1,0.2-0.5,0.6-1.1C493.4,118,495.1,117.8,496.8,117.5z"/>
			<path fill="#DBDBDB" d="M501.5,139c0.9-0.1,1.8-0.3,2.7-0.4c0-5.3,0-10.7,0-16c-0.9,0.1-1.8,0.3-2.7,0.4c0-2.1,0-4.1,0-6.2
				c3.8-0.6,7.6-1.2,11.4-1.8c0.1,0,0.3,0,0.4-0.1c0.2,0,0.3,0,0.4-0.1c0.1,0,0.2,0,0.4-0.1c0.8-0.1,1.5-0.2,2.3-0.4
				c0.8-0.1,1.5-0.2,2.2-0.3s1.4-0.1,2.1-0.1c0.7,0,1.4,0,2,0.1c0.6,0.1,1.2,0.3,1.7,0.5c0.5,0.2,1,0.5,1.5,0.9
				c0.4,0.4,0.8,0.9,1.1,1.4c0.3,0.5,0.6,1.2,0.7,2c0.2,0.8,0.3,1.7,0.3,2.7c0,1.7-0.2,3.3-0.8,4.6c-0.5,1.3-1.3,2.5-2.4,3.4
				c-1,0.9-2.3,1.6-3.7,2.2c-1.4,0.6-3,1-4.8,1.3c-0.8,0.1-1.7,0.2-2.6,0.2c0,1.2,0,2.5,0,3.7c0.9-0.1,1.7-0.3,2.6-0.4
				c0,2.1,0,4.2,0,6.3c-5,0.8-10.1,1.6-15.1,2.4C501.5,143.2,501.5,141.1,501.5,139z M514.1,127.5c0.2,0,0.5-0.1,0.7-0.1
				c2.7-0.4,4-1.8,4-4.2c0-1.1-0.3-1.8-0.9-2.2c-0.6-0.4-1.4-0.5-2.3-0.4c-0.5,0.1-1,0.2-1.5,0.2
				C514.1,123.1,514.1,125.3,514.1,127.5z"/>
			<path fill="#DBDBDB" d="M558.5,122c0,2.8-0.6,5.4-1.9,7.8c-1.3,2.4-3,4.5-5.2,6.1c-2.2,1.6-4.6,2.6-7.3,3.1
				c-2.7,0.4-5.1,0.2-7.3-0.8c-2.2-0.9-3.9-2.4-5.2-4.5c-1.3-2.1-1.9-4.5-1.9-7.2c0-3,0.6-5.8,1.9-8.2c1.3-2.5,3-4.5,5.1-6
				c2.2-1.5,4.6-2.5,7.4-2.9c2.7-0.4,5.2-0.2,7.4,0.6c2.2,0.8,3.9,2.3,5.1,4.4C557.9,116.5,558.5,119,558.5,122z M544.1,132.9
				c0.5-0.1,0.9-0.2,1.2-0.4c0.4-0.2,0.7-0.5,0.9-0.8c0.3-0.3,0.5-0.7,0.7-1.1c0.2-0.4,0.3-0.8,0.4-1.3c0.1-0.4,0.2-0.9,0.3-1.4
				c0.1-0.5,0.1-0.9,0.1-1.4c0-0.5,0-0.9,0-1.4c0-0.4,0-0.9,0-1.3c0-0.2,0-0.4,0-0.5c0-0.1,0-0.3,0-0.6c0-0.4,0-0.9,0-1.3
				c0-0.5,0-1-0.1-1.4c-0.1-0.5-0.1-1-0.2-1.4c-0.1-0.5-0.2-0.9-0.4-1.3c-0.2-0.4-0.4-0.7-0.7-1c-0.3-0.3-0.6-0.5-1-0.6
				c-0.4-0.1-0.9-0.1-1.4-0.1c-0.5,0.1-0.9,0.2-1.2,0.4c-0.4,0.2-0.7,0.4-0.9,0.7c-0.2,0.3-0.5,0.6-0.7,1c-0.2,0.4-0.3,0.8-0.4,1.2
				c-0.1,0.4-0.2,0.8-0.3,1.3c-0.1,0.4-0.1,0.9-0.1,1.3c0,0.4,0,0.9,0,1.3c0,0.4,0,0.8,0,1.2c0,0.3,0,0.5,0,0.6c0,0.1,0,0.3,0,0.5
				c0,0.3,0,0.7,0,1.1c0,0.4,0,0.8,0,1.2c0,0.4,0.1,0.8,0.1,1.2c0,0.4,0.1,0.8,0.2,1.2c0.1,0.4,0.2,0.7,0.3,1.1
				c0.1,0.3,0.3,0.6,0.5,0.9c0.2,0.3,0.4,0.5,0.6,0.7c0.2,0.2,0.5,0.3,0.9,0.4C543.3,133,543.7,133,544.1,132.9z"/>
			<path fill="#DBDBDB" d="M575,133.7c-3.1,0.5-7.8,1.2-14.2,2.2c0-2.1,0-4.2,0-6.3c0.9-0.1,1.8-0.3,2.7-0.4c0-5.3,0-10.7,0-16
				c-0.9,0.1-1.8,0.3-2.7,0.4c0-2.1,0-4.1,0-6.2c5.9-0.9,11.9-1.9,17.8-2.8c1.4-0.2,2.7-0.3,3.8-0.2c1.1,0.1,2.1,0.4,2.9,0.9
				c0.8,0.5,1.5,1.2,1.9,2.2c0.4,1,0.7,2.2,0.7,3.6c0,1.7-0.5,3.2-1.6,4.4c-1.1,1.3-2.7,2.2-4.7,2.9c1.7,0.1,3,0.5,3.7,1.1
				c0.8,0.6,1.1,1.4,1.1,2.5c0,0.5,0,1.1,0,1.6c0,0.3,0,0.6,0.1,0.8c0.1,0.2,0.2,0.4,0.4,0.5c0.2,0.2,0.5,0.2,0.9,0.3
				c0.4,0,0.9,0,1.6-0.1c0,2.1,0,4.2,0,6.3c-1.5,0.2-3.1,0.5-4.6,0.7c-0.5,0.1-0.8,0.1-1.1,0.2c-0.3,0-0.6,0.1-1.1,0.1
				c-0.4,0-0.8,0.1-1.1,0.1c-0.3,0-0.6,0-1-0.1c-0.4,0-0.7-0.1-0.9-0.2c-0.2-0.1-0.5-0.3-0.7-0.5c-0.3-0.2-0.4-0.4-0.6-0.7
				c-0.1-0.3-0.3-0.6-0.4-1c-0.1-0.4-0.1-0.8-0.1-1.3c0-1.1,0-2.3,0-3.4c0-0.7,0-1.3-0.1-1.7c-0.1-0.5-0.2-0.9-0.4-1.3
				c-0.2-0.4-0.5-0.6-1-0.8c-0.4-0.1-1-0.1-1.7,0c-0.6,0.1-1.1,0.2-1.7,0.3c0,2,0,3.9,0,5.9c0.7-0.1,1.4-0.2,2.1-0.3
				C575,129.4,575,131.6,575,133.7z M573.8,117.7c0.6-0.1,1.1-0.2,1.6-0.4c0.5-0.2,0.9-0.4,1.4-0.7c0.4-0.3,0.8-0.7,1-1.1
				c0.2-0.5,0.4-1,0.4-1.6c0-0.9-0.3-1.6-0.9-2.1c-0.6-0.5-1.4-0.6-2.5-0.5c-0.7,0.1-1.4,0.2-2.1,0.3c0,2.1,0,4.1,0,6.2
				C573.1,117.8,573.5,117.7,573.8,117.7z"/>
			<path fill="#DBDBDB" d="M611.2,111.1c-0.4-1.7-0.7-3.5-1.1-5.2c-0.6,0.1-1.2,0.2-1.9,0.3c0,5.3,0,10.7,0,16
				c1-0.1,1.9-0.3,2.9-0.4c0,2.1,0,4.2,0,6.3c-5.2,0.8-10.4,1.6-15.7,2.4c0-2.1,0-4.2,0-6.3c1-0.1,1.9-0.3,2.9-0.4
				c0-5.3,0-10.7,0-16c-0.6,0.1-1.2,0.2-1.8,0.3c-0.4,1.8-0.8,3.7-1.1,5.5c-1.6,0.3-3.3,0.5-4.9,0.8c0-3.8,0-7.7,0-11.5
				c8.5-1.3,17.1-2.6,25.6-3.9c0,3.8,0,7.7,0,11.5C614.4,110.6,612.8,110.9,611.2,111.1z"/>
			<path fill="#DBDBDB" d="M637.1,95.7c0,3,0,6,0,9.1c-1.8,0.3-3.6,0.5-5.4,0.8c-0.2-0.9-0.7-1.6-1.4-2.2c-0.7-0.6-1.5-0.8-2.4-0.7
				c-0.5,0.1-0.9,0.3-1.2,0.6c-0.3,0.3-0.4,0.7-0.4,1.3c0,0.4,0.1,0.6,0.4,0.8c0.3,0.2,0.7,0.4,1.2,0.5c0.5,0.1,1.1,0.2,1.7,0.3
				c0.6,0.1,1.3,0.2,2,0.3c0.7,0.1,1.4,0.3,2.1,0.5c0.7,0.2,1.4,0.5,2,0.9c0.6,0.4,1.2,0.9,1.7,1.5c0.5,0.6,0.9,1.4,1.2,2.3
				c0.3,0.9,0.5,2,0.5,3.2c0,1.2-0.2,2.4-0.6,3.6c-0.4,1.2-1,2.3-1.7,3.3c-0.7,1-1.6,1.8-2.7,2.5c-1.1,0.7-2.2,1.1-3.5,1.3
				c-1.3,0.2-2.3,0.2-3.2,0c-0.8-0.2-1.7-0.6-2.6-1.3c-0.2,0.6-0.4,1.1-0.6,1.7c-1.9,0.3-3.8,0.6-5.7,0.9c0-3,0-6.1,0-9.1
				c1.9-0.3,3.8-0.6,5.7-0.8c0.3,0.8,0.8,1.5,1.6,2c0.8,0.5,1.6,0.7,2.5,0.6c0.5-0.1,1-0.3,1.3-0.6c0.4-0.3,0.6-0.7,0.6-1.2
				c0-0.4-0.1-0.7-0.4-1c-0.3-0.2-0.5-0.4-0.8-0.5c-0.3-0.1-0.7-0.2-1.1-0.2c-0.7-0.1-1.3-0.2-1.8-0.3c-0.5-0.1-1.1-0.2-1.7-0.4
				c-0.6-0.1-1.1-0.3-1.6-0.5c-0.5-0.2-0.9-0.4-1.4-0.6c-0.5-0.3-0.9-0.5-1.2-0.9c-0.3-0.3-0.7-0.7-1-1.1c-0.3-0.4-0.6-0.9-0.7-1.4
				c-0.2-0.5-0.3-1.1-0.4-1.7c-0.1-0.7-0.2-1.4-0.2-2.1c0-2.8,0.7-5.1,2-7c1.4-1.9,3.4-3,6-3.4c2.3-0.3,4.1-0.1,5.5,0.8
				c0-0.1,0.2-0.5,0.6-1.1C633.8,96.2,635.5,95.9,637.1,95.7z"/>
			<path fill="#DBDBDB" d="M650.1,116c1-0.1,2-0.3,3-0.4c0-5.3,0-10.7,0-16c-1,0.1-1.9,0.3-2.9,0.4c0-2.1,0-4.1,0-6.2
				c4.8-0.7,9.5-1.4,14.3-2.1c1.4-0.2,2.7-0.3,3.8-0.4c1.1,0,2.1,0.1,3.1,0.2c1,0.2,1.8,0.5,2.4,1c0.6,0.5,1.1,1.1,1.5,1.9
				c0.4,0.8,0.5,1.8,0.5,3c0,1.5-0.4,2.8-1.2,4c-0.8,1.2-1.8,2.2-3.1,2.8c0,0,0,0,0,0c1.8,0.3,3.1,1,4.1,2.1c1,1.1,1.4,2.7,1.4,4.7
				c0,1.3-0.3,2.5-0.8,3.5c-0.5,1-1.2,1.9-2.2,2.6c-0.9,0.7-2,1.3-3.2,1.7c-1.2,0.4-2.6,0.8-4.1,1c-5.5,0.8-11,1.6-16.6,2.4
				C650.1,120.2,650.1,118.1,650.1,116z M662.4,103.6c0.2,0,0.5-0.1,0.7-0.1c0.6-0.1,1.1-0.2,1.5-0.3c0.4-0.1,0.8-0.3,1.2-0.6
				c0.4-0.3,0.7-0.6,0.9-1c0.2-0.4,0.3-1,0.3-1.6c0-0.8-0.2-1.4-0.7-1.7c-0.5-0.4-1-0.5-1.7-0.4c-0.7,0.1-1.5,0.2-2.2,0.3
				C662.4,100,662.4,101.8,662.4,103.6z M662.4,108.2c0,2,0,4,0,6c0.1,0,0.2,0,0.4-0.1c0.2,0,0.5-0.1,0.7-0.1c0.2,0,0.5-0.1,0.7-0.1
				c0.2,0,0.4-0.1,0.6-0.2c0.2-0.1,0.4-0.1,0.6-0.2c0.2-0.1,0.4-0.2,0.5-0.2c0.2-0.1,0.3-0.2,0.4-0.3c0.1-0.1,0.3-0.3,0.4-0.4
				c0.1-0.2,0.2-0.3,0.3-0.5c0.1-0.2,0.1-0.4,0.2-0.7c0-0.3,0.1-0.5,0.1-0.8c0-0.5-0.1-1-0.2-1.3c-0.2-0.4-0.4-0.6-0.6-0.8
				c-0.2-0.2-0.5-0.3-0.8-0.4c-0.3-0.1-0.6-0.1-0.9-0.1c-0.3,0-0.6,0-0.9,0.1C663.6,108.1,663.2,108.1,662.4,108.2z"/>
			<path fill="#DBDBDB" d="M704.1,106.9c0.1,0.4,0.2,0.6,0.2,0.8c0.1,0.2,0.2,0.3,0.3,0.5c0.1,0.1,0.3,0.2,0.5,0.2
				c0.5-0.1,1-0.1,1.5-0.2c0,2.1,0,4.2,0,6.3c-4.8,0.6-9.7,1.3-14.5,2c0-2.1,0-4.2,0-6.3c0.7-0.1,1.4-0.2,2.1-0.3
				c0-1.9-0.4-2.8-1.2-2.7c-1.6,0.2-3.2,0.4-4.8,0.7c-0.2,0-0.3,0.1-0.4,0.2c-0.1,0.1-0.1,0.3-0.1,0.4c0,0.1,0,0.3,0,0.6
				c0,0.3,0.1,0.7,0.2,1.1c0.1,0.4,0.3,0.6,0.6,0.6c0.5-0.1,1-0.1,1.5-0.2c0,2.1,0,4.2,0,6.3c-4,0.5-7.9,1.1-11.9,1.6
				c0-2.1,0-4.2,0-6.3c0.5-0.1,1-0.2,1.4-0.3c0.9-0.3,1.6-1,2-1.9c0.1-0.3,0.4-1.1,0.7-2.4c1-4.1,2-8.2,3-12.4
				c-1.2,0.2-2.5,0.3-3.7,0.5c0-2.1,0-4.1,0-6.2c5.8-0.8,11.6-1.6,17.5-2.4C700.5,93.6,702.3,100.3,704.1,106.9z M692.6,102.7
				c-0.7-2.9-1.4-5.8-2.1-8.6c-0.7,3.1-1.3,6.1-2,9.2C690,103.1,691.3,102.9,692.6,102.7z"/>
			<path fill="#DBDBDB" d="M722.8,112.3c-3.1,0.4-7.8,1-14.2,1.9c0-2.1,0-4.2,0-6.3c0.9-0.1,1.8-0.2,2.7-0.4c0-5.3,0-10.7,0-16
				c-0.9,0.1-1.8,0.2-2.7,0.4c0-2.1,0-4.1,0-6.2c5.9-0.8,11.9-1.6,17.8-2.3c1.4-0.2,2.7-0.2,3.8-0.1c1.1,0.1,2.1,0.5,2.9,1
				c0.8,0.5,1.5,1.3,1.9,2.2c0.4,1,0.7,2.2,0.7,3.6c0,1.7-0.5,3.2-1.6,4.4c-1.1,1.2-2.7,2.2-4.7,2.8c1.7,0.2,3,0.6,3.7,1.2
				c0.7,0.6,1.1,1.5,1.1,2.5c0,0.5,0,1.1,0,1.6c0,0.3,0,0.6,0.1,0.8c0.1,0.2,0.2,0.4,0.4,0.5c0.2,0.2,0.5,0.3,0.9,0.3
				c0.4,0,0.9,0,1.6-0.1c0,2.1,0,4.2,0,6.3c-1.5,0.2-3.1,0.4-4.6,0.6c-0.5,0.1-0.8,0.1-1.1,0.1c-0.3,0-0.6,0.1-1.1,0.1
				c-0.4,0-0.8,0-1.1,0c-0.3,0-0.6-0.1-1-0.1c-0.4-0.1-0.7-0.1-0.9-0.3c-0.2-0.1-0.5-0.3-0.7-0.5c-0.3-0.2-0.4-0.4-0.6-0.7
				c-0.1-0.3-0.3-0.6-0.4-1c-0.1-0.4-0.1-0.8-0.1-1.3c0-1.1,0-2.3,0-3.4c0-0.7,0-1.3-0.1-1.7c-0.1-0.5-0.2-0.9-0.4-1.3
				c-0.2-0.4-0.5-0.7-1-0.8c-0.4-0.1-1-0.2-1.7-0.1c-0.6,0.1-1.1,0.1-1.7,0.2c0,2,0,3.9,0,5.9c0.7-0.1,1.4-0.2,2.1-0.3
				C722.8,108.1,722.8,110.2,722.8,112.3z M721.6,96.3c0.6-0.1,1.1-0.2,1.6-0.3c0.5-0.2,0.9-0.4,1.4-0.7c0.4-0.3,0.8-0.6,1-1.1
				c0.2-0.5,0.4-1,0.4-1.6c0-0.9-0.3-1.6-0.9-2.1c-0.6-0.5-1.4-0.7-2.5-0.5c-0.7,0.1-1.4,0.2-2.1,0.3c0,2.1,0,4.1,0,6.2
				C720.9,96.4,721.3,96.4,721.6,96.3z"/>
			<path fill="#DBDBDB" d="M312.8,194.8c-0.9,0.1-1.7,0.2-2.6,0.4c0,5.3,0,10.7,0,16c0.8-0.1,1.7-0.2,2.5-0.3c0,2.1,0,4.2,0,6.3
				c-5.1,0.7-10.1,1.4-15.2,2c0-2.1,0-4.2,0-6.3c0.9-0.1,1.7-0.2,2.6-0.3c0-5.3,0-10.7,0-16c-0.8,0.1-1.7,0.2-2.5,0.3
				c0-2.1,0-4.1,0-6.2c5.1-0.7,10.1-1.4,15.2-2C312.8,190.6,312.8,192.7,312.8,194.8z"/>
			<path fill="#DBDBDB" d="M346.5,190c-1,0.1-1.7,0.5-2.1,1c-0.4,0.5-0.6,1.2-0.6,2.1c0,6.6,0,13.1,0,19.7c-3.6,0.5-7.1,1-10.7,1.5
				c-2.8-4.9-5.5-9.9-8.3-14.8c0,2.3,0,4.7,0,7c0,1,0.2,1.6,0.6,1.9c0.4,0.3,1.1,0.4,2.1,0.3c0,2.1,0,4.2,0,6.3
				c-3.7,0.5-7.5,1-11.2,1.6c0-2.1,0-4.2,0-6.3c0.5-0.1,1-0.2,1.4-0.4c0.4-0.2,0.7-0.4,0.8-0.6c0.2-0.2,0.3-0.5,0.4-0.8
				c0.1-0.3,0.2-0.7,0.2-0.9c0-0.3,0-0.6,0-1.1c0-4.2,0-8.5,0-12.7c-0.9,0.1-1.8,0.3-2.8,0.4c0-2.1,0-4.1,0-6.2
				c4.3-0.6,8.6-1.2,12.9-1.8c2.9,5.3,5.8,10.6,8.7,15.9c0-2.7,0-5.5,0-8.2c0-0.3,0-0.5,0-0.6c0-0.1,0-0.3-0.1-0.6
				c0-0.3-0.1-0.5-0.2-0.6c-0.1-0.1-0.3-0.3-0.5-0.4c-0.2-0.1-0.5-0.2-0.8-0.2c-0.3,0-0.7,0-1.2,0.1c0-2.1,0-4.1,0-6.2
				c3.7-0.5,7.5-1,11.2-1.6C346.5,185.9,346.5,188,346.5,190z"/>
			<path fill="#DBDBDB" d="M377.3,190.9c-0.4-1.7-0.7-3.5-1.1-5.2c-0.6,0.1-1.2,0.2-1.9,0.3c0,5.3,0,10.7,0,16
				c1-0.1,1.9-0.3,2.9-0.4c0,2.1,0,4.2,0,6.3c-5.2,0.8-10.4,1.6-15.7,2.3c0-2.1,0-4.2,0-6.3c1-0.1,1.9-0.3,2.9-0.4
				c0-5.3,0-10.7,0-16c-0.6,0.1-1.2,0.2-1.8,0.3c-0.4,1.8-0.8,3.7-1.1,5.5c-1.6,0.2-3.3,0.5-4.9,0.7c0-3.8,0-7.7,0-11.5
				c8.5-1.2,17.1-2.5,25.6-3.8c0,3.8,0,7.7,0,11.5C380.6,190.4,379,190.6,377.3,190.9z"/>
			<path fill="#DBDBDB" d="M408.8,195.2c0.1,0.3,0.2,0.6,0.2,0.8c0.1,0.2,0.2,0.3,0.3,0.5c0.1,0.1,0.3,0.2,0.5,0.1
				c0.5-0.1,1-0.2,1.5-0.2c0,2.1,0,4.2,0,6.3c-4.8,0.7-9.7,1.5-14.5,2.2c0-2.1,0-4.2,0-6.3c0.7-0.1,1.4-0.2,2.1-0.3
				c0-1.9-0.4-2.8-1.2-2.7c-1.6,0.2-3.2,0.5-4.8,0.7c-0.2,0-0.3,0.1-0.4,0.2c-0.1,0.1-0.1,0.3-0.1,0.4c0,0.1,0,0.3,0,0.6
				c0,0.3,0.1,0.7,0.2,1.1c0.1,0.4,0.3,0.6,0.6,0.5c0.5-0.1,1-0.1,1.5-0.2c0,2.1,0,4.2,0,6.3c-4,0.6-7.9,1.2-11.9,1.8
				c0-2.1,0-4.2,0-6.3c0.5-0.1,1-0.2,1.4-0.3c0.9-0.4,1.6-1,2-2c0.1-0.3,0.4-1.1,0.7-2.4c1-4.1,2-8.3,3-12.4
				c-1.2,0.2-2.5,0.4-3.7,0.6c0-2.1,0-4.1,0-6.2c5.8-0.9,11.6-1.8,17.5-2.7C405.2,182,407,188.6,408.8,195.2z M397.3,191.2
				c-0.7-2.9-1.4-5.7-2.1-8.6c-0.7,3.1-1.3,6.2-2,9.2C394.6,191.6,396,191.4,397.3,191.2z"/>
			<path fill="#DBDBDB" d="M421.8,191.6c0,0.2,0,0.4,0,0.5c0,0.1,0,0.3,0,0.5c0,0.2,0,0.4,0.1,0.5c0,0.1,0.1,0.2,0.1,0.4
				c0.1,0.2,0.1,0.3,0.2,0.4c0.1,0.1,0.2,0.1,0.4,0.2c0.1,0.1,0.3,0.2,0.5,0.2c0.2,0,0.4,0,0.7,0c0.3,0,0.5,0,0.9-0.1
				c0,2.1,0,4.2,0,6.3c-3.8,0.6-7.6,1.2-11.4,1.8c0-2.1,0-4.2,0-6.3c0.3,0,0.6-0.1,0.9-0.2c0.3-0.1,0.5-0.2,0.7-0.3
				c0.2-0.1,0.4-0.2,0.5-0.4c0.1-0.2,0.3-0.3,0.4-0.4c0.1-0.1,0.2-0.3,0.2-0.6c0.1-0.2,0.1-0.4,0.1-0.6c0-0.2,0.1-0.4,0.1-0.7
				c0-0.3,0-0.6,0-0.8c0-0.2,0-0.5,0-0.9c0-3.9,0-7.8,0-11.6c-1,0.2-2,0.3-2.9,0.5c0-2.1,0-4.1,0-6.2c4.9-0.8,9.8-1.5,14.7-2.3
				c1.8,4.2,3.6,8.4,5.4,12.6c1.6-4.7,3.2-9.5,4.9-14.2c4.6-0.7,9.2-1.4,13.8-2.2c0,2.1,0,4.1,0,6.2c-0.9,0.1-1.7,0.3-2.6,0.4
				c0,5.3,0,10.7,0,16c0.9-0.1,1.8-0.3,2.7-0.4c0,2.1,0,4.2,0,6.3c-4.7,0.7-9.4,1.5-14.1,2.2c0-2.1,0-4.2,0-6.3
				c0.7-0.1,1.4-0.2,2.2-0.3c0-3.6,0-7.2,0-10.9c-2,6-4,12.1-6,18.1c-1.6,0.3-3.3,0.5-4.9,0.8c-2.4-5.5-4.9-10.9-7.3-16.4
				C421.8,186.2,421.8,188.9,421.8,191.6z"/>
			<path fill="#DBDBDB" d="M455.5,189.5c0.9-0.1,1.8-0.3,2.7-0.4c0-5.3,0-10.7,0-16c-0.9,0.1-1.8,0.3-2.7,0.4c0-2.1,0-4.1,0-6.2
				c3.8-0.6,7.6-1.2,11.4-1.8c0.1,0,0.3,0,0.4-0.1c0.2,0,0.3,0,0.4-0.1c0.1,0,0.2,0,0.4-0.1c0.8-0.1,1.5-0.2,2.3-0.4
				c0.8-0.1,1.5-0.2,2.2-0.3c0.7-0.1,1.4-0.1,2.1-0.1c0.7,0,1.4,0,2,0.1c0.6,0.1,1.2,0.3,1.7,0.5c0.5,0.2,1,0.5,1.5,0.9
				c0.4,0.4,0.8,0.9,1.1,1.4c0.3,0.5,0.6,1.2,0.7,2c0.2,0.8,0.3,1.7,0.3,2.7c0,1.7-0.2,3.3-0.8,4.6c-0.5,1.3-1.3,2.5-2.4,3.4
				c-1,0.9-2.3,1.6-3.7,2.2c-1.4,0.6-3,1-4.8,1.3c-0.8,0.1-1.7,0.2-2.6,0.2c0,1.2,0,2.5,0,3.7c0.9-0.1,1.7-0.3,2.6-0.4
				c0,2.1,0,4.2,0,6.3c-5,0.8-10.1,1.6-15.1,2.4C455.5,193.7,455.5,191.6,455.5,189.5z M468.1,178c0.2,0,0.5-0.1,0.7-0.1
				c2.7-0.4,4-1.8,4-4.2c0-1.1-0.3-1.8-0.9-2.2c-0.6-0.4-1.4-0.5-2.3-0.4c-0.5,0.1-1,0.2-1.5,0.2C468.1,173.7,468.1,175.8,468.1,178
				z"/>
			<path fill="#DBDBDB" d="M508.2,179.5c0.1,0.3,0.2,0.6,0.2,0.8c0.1,0.2,0.2,0.3,0.3,0.5c0.1,0.1,0.3,0.2,0.5,0.1
				c0.5-0.1,1-0.2,1.5-0.2c0,2.1,0,4.2,0,6.3c-4.8,0.8-9.7,1.5-14.5,2.3c0-2.1,0-4.2,0-6.3c0.7-0.1,1.4-0.2,2.1-0.3
				c0-1.9-0.4-2.8-1.2-2.7c-1.6,0.3-3.2,0.5-4.8,0.8c-0.2,0-0.3,0.1-0.4,0.2c-0.1,0.1-0.1,0.3-0.1,0.4c0,0.1,0,0.3,0,0.6
				c0,0.3,0.1,0.7,0.2,1.1c0.1,0.4,0.3,0.6,0.6,0.5c0.5-0.1,1-0.2,1.5-0.2c0,2.1,0,4.2,0,6.3c-4,0.6-7.9,1.3-11.9,1.9
				c0-2.1,0-4.2,0-6.3c0.5-0.1,1-0.2,1.4-0.4c0.9-0.4,1.6-1,2-2c0.1-0.3,0.4-1.1,0.7-2.4c1-4.1,2-8.3,3-12.4
				c-1.2,0.2-2.5,0.4-3.7,0.6c0-2.1,0-4.1,0-6.2c5.8-0.9,11.6-1.9,17.5-2.8C504.6,166.3,506.4,172.9,508.2,179.5z M496.7,175.6
				c-0.7-2.9-1.4-5.7-2.1-8.6c-0.7,3.1-1.3,6.2-2,9.2C494.1,176.1,495.4,175.9,496.7,175.6z"/>
			<path fill="#DBDBDB" d="M537.3,171.5c-1.2,0.2-2.4,0.4-3.6,0.6c0,1.7,0,3.3,0,5c0.9-0.1,1.8-0.3,2.7-0.4c0,2.1,0,4.2,0,6.3
				c-5.1,0.8-10.3,1.6-15.4,2.4c0-2.1,0-4.2,0-6.3c0.9-0.1,1.9-0.3,2.8-0.4c0-5.3,0-10.7,0-16c-0.9,0.1-1.9,0.3-2.8,0.4
				c0-2.1,0-4.1,0-6.2c7.5-1.2,14.9-2.4,22.4-3.6c0,3.9,0,7.8,0,11.7c-1.7,0.3-3.3,0.5-5,0.8c-0.4-1.8-0.8-3.5-1.1-5.3
				c-1.2,0.2-2.4,0.4-3.6,0.6c0,1.6,0,3.2,0,4.8c1.2-0.2,2.4-0.4,3.6-0.6C537.3,167.3,537.3,169.4,537.3,171.5z"/>
			<path fill="#DBDBDB" d="M558.4,173.1c1.1-0.2,2.2-0.4,3.4-0.5c0.5-2.1,1-4.3,1.5-6.4c1.7-0.3,3.4-0.5,5-0.8c0,4.2,0,8.3,0,12.5
				c-7.5,1.2-14.9,2.3-22.4,3.5c0-2.1,0-4.2,0-6.3c0.8-0.1,1.7-0.3,2.5-0.4c0-5.3,0-10.7,0-16c-0.9,0.1-1.7,0.3-2.6,0.4
				c0-2.1,0-4.1,0-6.2c5.1-0.8,10.2-1.6,15.3-2.4c0,2.1,0,4.1,0,6.2c-0.9,0.1-1.8,0.3-2.7,0.4C558.4,162.5,558.4,167.8,558.4,173.1z
				"/>
			<path fill="#DBDBDB" d="M598.7,159c0,2.8-0.6,5.4-1.9,7.8c-1.3,2.4-3,4.5-5.2,6.1c-2.2,1.6-4.6,2.6-7.3,3
				c-2.7,0.4-5.1,0.2-7.3-0.8c-2.2-0.9-3.9-2.4-5.2-4.5c-1.3-2.1-1.9-4.5-1.9-7.2c0-3,0.6-5.8,1.9-8.2c1.3-2.5,3-4.5,5.1-6
				c2.2-1.5,4.6-2.5,7.4-2.9c2.7-0.4,5.2-0.2,7.4,0.6c2.2,0.8,3.9,2.3,5.1,4.4C598.1,153.4,598.7,156,598.7,159z M584.3,169.8
				c0.5-0.1,0.9-0.2,1.2-0.4c0.4-0.2,0.7-0.5,0.9-0.8c0.3-0.3,0.5-0.7,0.7-1.1c0.2-0.4,0.3-0.8,0.4-1.3c0.1-0.4,0.2-0.9,0.3-1.4
				c0.1-0.5,0.1-0.9,0.1-1.4c0-0.5,0-0.9,0-1.4c0-0.4,0-0.9,0-1.3c0-0.2,0-0.4,0-0.5c0-0.1,0-0.3,0-0.6c0-0.4,0-0.9,0-1.3
				c0-0.5,0-1-0.1-1.4c-0.1-0.5-0.1-1-0.2-1.4c-0.1-0.5-0.2-0.9-0.4-1.3c-0.2-0.4-0.4-0.7-0.7-1c-0.3-0.3-0.6-0.5-1-0.6
				c-0.4-0.1-0.9-0.1-1.4-0.1c-0.5,0.1-0.9,0.2-1.2,0.4c-0.4,0.2-0.7,0.4-0.9,0.7c-0.2,0.3-0.5,0.6-0.7,1c-0.2,0.4-0.3,0.7-0.4,1.2
				c-0.1,0.4-0.2,0.8-0.3,1.3c-0.1,0.4-0.1,0.9-0.1,1.3c0,0.4,0,0.9,0,1.3c0,0.4,0,0.8,0,1.2c0,0.3,0,0.5,0,0.6c0,0.1,0,0.3,0,0.5
				c0,0.3,0,0.7,0,1.1c0,0.4,0,0.8,0,1.2c0,0.4,0.1,0.8,0.1,1.2c0,0.4,0.1,0.8,0.2,1.2c0.1,0.4,0.2,0.7,0.3,1.1
				c0.1,0.3,0.3,0.6,0.5,0.9c0.2,0.3,0.4,0.5,0.6,0.7c0.2,0.2,0.5,0.3,0.9,0.4C583.5,169.9,583.9,169.9,584.3,169.8z"/>
			<path fill="#DBDBDB" d="M615.2,170.7c-3.1,0.5-7.8,1.2-14.2,2.2c0-2.1,0-4.2,0-6.3c0.9-0.1,1.8-0.3,2.7-0.4c0-5.3,0-10.7,0-16
				c-0.9,0.1-1.8,0.3-2.7,0.4c0-2.1,0-4.1,0-6.2c5.9-0.9,11.9-1.8,17.8-2.7c1.4-0.2,2.7-0.3,3.8-0.2c1.1,0.1,2.1,0.4,2.9,0.9
				c0.8,0.5,1.5,1.2,1.9,2.2c0.4,1,0.7,2.2,0.7,3.6c0,1.7-0.5,3.2-1.6,4.4c-1.1,1.3-2.7,2.2-4.7,2.9c1.7,0.1,3,0.5,3.7,1.1
				c0.7,0.6,1.1,1.4,1.1,2.5c0,0.5,0,1.1,0,1.6c0,0.3,0,0.6,0.1,0.8c0.1,0.2,0.2,0.4,0.4,0.5c0.2,0.2,0.5,0.2,0.9,0.3
				c0.4,0,0.9,0,1.6-0.1c0,2.1,0,4.2,0,6.3c-1.5,0.2-3.1,0.5-4.6,0.7c-0.5,0.1-0.8,0.1-1.1,0.2c-0.3,0-0.6,0.1-1.1,0.1
				c-0.4,0-0.8,0.1-1.1,0c-0.3,0-0.6,0-1-0.1c-0.4-0.1-0.7-0.1-0.9-0.2c-0.2-0.1-0.5-0.3-0.7-0.5c-0.3-0.2-0.4-0.4-0.6-0.7
				c-0.1-0.3-0.3-0.6-0.4-1c-0.1-0.4-0.1-0.8-0.1-1.3c0-1.1,0-2.3,0-3.4c0-0.7,0-1.3-0.1-1.7c-0.1-0.5-0.2-0.9-0.4-1.3
				c-0.2-0.4-0.5-0.6-1-0.8c-0.4-0.1-1-0.1-1.7,0c-0.6,0.1-1.1,0.2-1.7,0.3c0,2,0,3.9,0,5.9c0.7-0.1,1.4-0.2,2.1-0.3
				C615.2,166.5,615.2,168.6,615.2,170.7z M614,154.7c0.6-0.1,1.1-0.2,1.6-0.4c0.5-0.2,0.9-0.4,1.4-0.7c0.4-0.3,0.8-0.7,1-1.1
				c0.2-0.5,0.4-1,0.4-1.6c0-0.9-0.3-1.6-0.9-2.1c-0.6-0.5-1.4-0.6-2.5-0.5c-0.7,0.1-1.4,0.2-2.1,0.3c0,2.1,0,4.1,0,6.2
				C613.3,154.8,613.7,154.7,614,154.7z"/>
			<path fill="#DBDBDB" d="M647.3,143.6c-0.9,0.1-1.7,0.3-2.6,0.4c0,5.3,0,10.7,0,16c0.8-0.1,1.7-0.2,2.5-0.4c0,2.1,0,4.2,0,6.3
				c-5.1,0.7-10.1,1.5-15.2,2.2c0-2.1,0-4.2,0-6.3c0.9-0.1,1.7-0.3,2.6-0.4c0-5.3,0-10.7,0-16c-0.8,0.1-1.7,0.2-2.5,0.4
				c0-2.1,0-4.1,0-6.2c5.1-0.8,10.1-1.5,15.2-2.2C647.3,139.5,647.3,141.5,647.3,143.6z"/>
			<path fill="#DBDBDB" d="M650.8,159.1c1-0.1,1.9-0.3,2.9-0.4c0-5.3,0-10.7,0-16c-1,0.1-2,0.3-3,0.4c0-2.1,0-4.1,0-6.2
				c4.9-0.7,9.7-1.4,14.6-2.1c4.8-0.7,8.4,0,10.8,2.1c2.4,2.1,3.6,5.4,3.6,10.1c0,1.9-0.3,3.8-1,5.6c-0.6,1.8-1.6,3.5-2.8,4.9
				c-1.2,1.5-2.8,2.8-4.7,3.8c-1.9,1.1-4,1.7-6.4,2.1c-4.7,0.7-9.4,1.3-14.1,2C650.8,163.3,650.8,161.2,650.8,159.1z M663.9,157.2
				c0.9-0.1,1.6-0.4,2.3-0.8c0.6-0.4,1.2-0.9,1.6-1.5c0.4-0.6,0.7-1.2,0.9-2c0.2-0.8,0.4-1.5,0.5-2.2c0.1-0.7,0.1-1.5,0.1-2.3
				c0-0.8,0-1.5-0.1-2.2c-0.1-0.7-0.2-1.4-0.4-2.1c-0.2-0.7-0.5-1.3-0.9-1.7c-0.4-0.5-0.9-0.8-1.5-1.1c-0.6-0.2-1.4-0.3-2.3-0.2
				c-0.3,0-0.6,0.1-0.8,0.1c0,5.3,0,10.7,0,16C663.5,157.3,663.7,157.2,663.9,157.2z"/>
			<path fill="#DBDBDB" d="M706.7,149.8c0.1,0.4,0.2,0.6,0.2,0.8c0.1,0.2,0.2,0.3,0.3,0.5c0.1,0.1,0.3,0.2,0.5,0.2
				c0.5-0.1,1-0.1,1.5-0.2c0,2.1,0,4.2,0,6.3c-4.8,0.6-9.7,1.3-14.5,1.9c0-2.1,0-4.2,0-6.3c0.7-0.1,1.4-0.2,2.1-0.3
				c0-1.9-0.4-2.8-1.2-2.7c-1.6,0.2-3.2,0.4-4.8,0.7c-0.2,0-0.3,0.1-0.4,0.2c-0.1,0.1-0.1,0.3-0.1,0.4c0,0.1,0,0.3,0,0.6
				c0,0.3,0.1,0.7,0.2,1.1c0.1,0.4,0.3,0.6,0.6,0.6c0.5-0.1,1-0.1,1.5-0.2c0,2.1,0,4.2,0,6.3c-4,0.5-7.9,1.1-11.9,1.6
				c0-2.1,0-4.2,0-6.3c0.5-0.1,1-0.2,1.4-0.3c0.9-0.3,1.6-1,2-1.9c0.1-0.3,0.4-1.1,0.7-2.4c1-4.1,2-8.2,3-12.4
				c-1.2,0.2-2.5,0.3-3.7,0.5c0-2.1,0-4.1,0-6.2c5.8-0.8,11.6-1.6,17.5-2.4C703.1,136.5,704.9,143.1,706.7,149.8z M695.2,145.6
				c-0.7-2.9-1.4-5.8-2.1-8.7c-0.7,3.1-1.3,6.1-2,9.2C692.5,145.9,693.9,145.8,695.2,145.6z"/>
		</g>
		<g>
			<path fill="#DBDBDB" d="M952.5,77.2c-66.7,2-133.3,7.9-200,15.9c0-1.7,0-3.3,0-5c66.7-8,133.3-13.8,200-15.9
				C952.5,73.9,952.5,75.6,952.5,77.2z"/>
			<path fill="#F6EE3D" d="M952.5,102.2c-66.7,2-133.3,7.9-200,15.9c0-1.7,0-3.3,0-5c66.7-8,133.3-13.8,200-15.9
				C952.5,98.9,952.5,100.6,952.5,102.2z"/>
			<path fill="#DBDBDB" d="M952.5,127.2c-66.7,2-133.3,7.9-200,15.9c0-1.7,0-3.3,0-5c66.7-8,133.3-13.8,200-15.9
				C952.5,123.9,952.5,125.6,952.5,127.2z"/>
		</g>
		<g>
			<path fill="#DBDBDB" d="M252.5,166c-70.3,9.7-135,14.7-200,16c0-1.7,0-3.3,0-5c66.7-2.1,133.3-8,200-16
				C252.5,162.7,252.5,164.4,252.5,166z"/>
			<path fill="#F6EE3D" d="M252.5,191c-66.7,8-133.3,13.9-200,16c0-1.7,0-3.3,0-5c66.7-2.1,133.3-8,200-16
				C252.5,187.7,252.5,189.4,252.5,191z"/>
			<path fill="#DBDBDB" d="M252.5,216c-66.7,8-133.3,13.9-200,16c0-1.7,0-3.3,0-5c66.7-2.1,133.3-8,200-16
				C252.5,212.7,252.5,214.4,252.5,216z"/>
		</g>
	</g>
</g>
</svg>
