<?xml version="1.0" encoding="utf-8"?>
<!-- Generator: Adobe Illustrator 17.1.0, SVG Export Plug-In . SVG Version: 6.00 Build 0)  -->
<!DOCTYPE svg PUBLIC "-//W3C//DTD SVG 1.1//EN" "http://www.w3.org/Graphics/SVG/1.1/DTD/svg11.dtd" [
	<!ENTITY ns_extend "http://ns.adobe.com/Extensibility/1.0/">
	<!ENTITY ns_ai "http://ns.adobe.com/AdobeIllustrator/10.0/">
	<!ENTITY ns_graphs "http://ns.adobe.com/Graphs/1.0/">
	<!ENTITY ns_vars "http://ns.adobe.com/Variables/1.0/">
	<!ENTITY ns_imrep "http://ns.adobe.com/ImageReplacement/1.0/">
	<!ENTITY ns_sfw "http://ns.adobe.com/SaveForWeb/1.0/">
	<!ENTITY ns_custom "http://ns.adobe.com/GenericCustomNamespace/1.0/">
	<!ENTITY ns_adobe_xpath "http://ns.adobe.com/XPath/1.0/">
]>
<svg version="1.1" id="Layer_1" xmlns:x="&ns_extend;" xmlns:i="&ns_ai;" xmlns:graph="&ns_graphs;"
	 xmlns="http://www.w3.org/2000/svg" xmlns:xlink="http://www.w3.org/1999/xlink" x="0px" y="0px" viewBox="0 0 261 133.5"
	 enable-background="new 0 0 261 133.5" xml:space="preserve">
<metadata>
	<sfw  xmlns="&ns_sfw;">
		<slices></slices>
		<sliceSourceBounds  height="118" width="258.4" y="-167.9" x="6.1" bottomLeftOrigin="true"></sliceSourceBounds>
	</sfw>
</metadata>
<g>
	<path fill="#1FAD57" d="M99.4,113c0,0-2.5-0.5-1.6-1.2s6.4-5.9,6.4-5.9s0.4-0.8-0.1-1.1c-0.4-0.4-2.3,0.7-4.7,0.7
		c-2.4,0-4.9-1.5-4.9-3.2c0-1.7,2.6-4.1,2.6-4.1s-1.5-3,1.3-4.2c3.8-1.3,8.1,4.2,8.1,4.2s-2.7-6.1,0.6-7.9c3.3-1.8,5.4,1.6,5.4,1.6
		s4.9-0.7,5.2,2.1c0.5,4.9-5.5,6.7-5.5,6.7s-0.3,0.4-0.1,0.6c0.6,0.4,1.3-0.4,3.5-1c2.3-0.6,6.7,1.1,6.6,3.6c0,2.5-1.1,4.1-4.1,5.4
		c0,0,0.3,4.5-4.7,3.4c-2.1-0.5-5-5.5-5-5.5s-0.3-0.5-0.9,0.5c0,0-3.4,5.1-3.8,5.4C103.6,113,103.8,113.3,99.4,113z"/>
	<path fill="#1FAD57" d="M108.5,82.4c10.4,0,18.9,8.5,18.9,18.9s-8.5,18.9-18.9,18.9s-18.9-8.5-18.9-18.9S98.1,82.4,108.5,82.4
		 M108.5,81.2c-11.1,0-20.1,9-20.1,20.1c0,11.1,9,20.1,20.1,20.1s20.1-9,20.1-20.1C128.6,90.2,119.6,81.2,108.5,81.2L108.5,81.2z"/>
</g>
<g>
	<g>
		<path fill="#FFFFFF" d="M21.2,27.5h2.9V10.5h-2.8V4h12.1c0.1,0,0.3,0,0.4,0c0.2,0,0.3,0,0.4,0c0.1,0,0.3,0,0.5,0
			c0.8,0,1.6,0,2.4,0c0.8,0,1.6,0,2.4,0.1c0.8,0.1,1.5,0.1,2.3,0.2c0.7,0.1,1.4,0.3,2.1,0.5c0.7,0.2,1.3,0.5,1.8,0.8
			c0.6,0.3,1.1,0.7,1.6,1.2s0.9,1.1,1.2,1.7c0.3,0.6,0.6,1.4,0.8,2.2c0.2,0.9,0.3,1.8,0.3,2.9c0,1.8-0.3,3.4-0.8,4.8
			c-0.6,1.3-1.4,2.4-2.5,3.2c-1.1,0.8-2.4,1.4-3.9,1.7s-3.2,0.5-5,0.5c-0.9,0-1.8-0.1-2.8-0.2v3.9h2.7v6.7h-16V27.5z M34.5,17.5h0.8
			c2.8,0,4.2-1.2,4.2-3.7c0-1.1-0.3-1.9-1-2.5c-0.7-0.5-1.5-0.8-2.4-0.8h-1.6V17.5z"/>
		<path fill="#FFFFFF" d="M77.7,24.5c0,2-0.6,3.7-1.7,5.3c-1.1,1.6-2.6,2.8-4.5,3.6s-3.8,1.3-5.9,1.3c-1.4,0-2.6-0.1-3.7-0.4
			s-2.1-0.6-2.9-1.1c-0.8-0.4-1.5-1-2.1-1.7c-0.6-0.7-1.1-1.4-1.5-2.1c-0.4-0.8-0.7-1.6-0.9-2.5S54.1,25,54,24.1s-0.1-1.9-0.1-3
			V10.5h-3V4H67v6.5h-2.8V23c0,0.6,0.1,1.2,0.2,1.7c0.1,0.5,0.3,1,0.6,1.5c0.3,0.5,0.6,0.8,1.1,1.1c0.5,0.3,1,0.4,1.7,0.4
			c1.1,0,2-0.3,2.7-0.9c0.6-0.6,1-1.5,1-2.6V10.5h-3V4h12.2v6.5h-2.9V24.5z"/>
		<path fill="#FFFFFF" d="M98.3,34.1c-3.3,0-8.3,0-15.1,0v-6.7h2.9V10.5h-2.9V4h18.9c1.5,0,2.9,0.1,4,0.4s2.2,0.8,3.1,1.4
			s1.6,1.5,2,2.6c0.5,1.1,0.7,2.4,0.7,3.9c0,1.8-0.6,3.3-1.7,4.4c-1.2,1.2-2.8,1.9-4.9,2.3c1.8,0.4,3.2,1,4,1.8
			c0.8,0.8,1.2,1.7,1.2,2.8v1.7c0,0.4,0,0.6,0.1,0.9c0.1,0.2,0.2,0.4,0.4,0.6s0.5,0.3,0.9,0.4c0.4,0.1,1,0.1,1.7,0.1v6.7h-4.9
			c-0.5,0-0.9,0-1.1,0s-0.7,0-1.1,0c-0.5,0-0.8-0.1-1.1-0.1c-0.3-0.1-0.6-0.1-1-0.3c-0.4-0.1-0.7-0.2-0.9-0.4s-0.5-0.4-0.8-0.6
			c-0.3-0.2-0.5-0.5-0.6-0.8c-0.1-0.3-0.3-0.7-0.4-1.1c-0.1-0.4-0.1-0.9-0.1-1.4v-3.6c0-0.7,0-1.3-0.1-1.8c-0.1-0.5-0.2-1-0.5-1.4
			c-0.2-0.4-0.6-0.8-1.1-1c-0.5-0.2-1.1-0.3-1.8-0.3h-1.8v6.2h2.2V34.1z M97.1,17c0.6,0,1.2,0,1.7-0.1c0.5-0.1,1-0.3,1.5-0.5
			c0.5-0.2,0.8-0.6,1.1-1c0.3-0.4,0.4-1,0.4-1.6c0-1-0.3-1.8-0.9-2.4s-1.5-0.9-2.6-0.9H96V17H97.1z"/>
		<path fill="#FFFFFF" d="M141.1,30.4l-0.5,0.4c-0.4,0.3-0.9,0.7-1.6,1.1s-1.5,0.8-2.4,1.3c-0.9,0.4-2,0.8-3.3,1.1
			c-1.3,0.3-2.6,0.4-3.9,0.4c-3.1,0-5.7-0.7-7.9-2c-2.2-1.3-3.8-3.1-4.8-5.4c-1.1-2.3-1.6-5-1.6-8.1c0-1.6,0.1-3.1,0.4-4.6
			s0.8-2.9,1.4-4.3c0.7-1.4,1.5-2.6,2.4-3.6s2.2-1.8,3.6-2.4c1.4-0.6,3-0.9,4.8-0.9c0.9,0,1.7,0,2.4,0.1c0.7,0.1,1.4,0.2,2.2,0.5
			c0.8,0.3,1.5,0.7,2.1,1.2l0.6-1.3h5.8l0,11.8h-5.5c0-0.7-0.1-1.3-0.2-1.9c-0.1-0.6-0.4-1.2-0.7-1.8s-0.8-1-1.4-1.3
			c-0.6-0.3-1.3-0.5-2.1-0.5c-0.6,0-1.1,0.1-1.6,0.3s-0.8,0.4-1.2,0.7c-0.3,0.3-0.6,0.7-0.8,1.2c-0.2,0.5-0.4,0.9-0.5,1.3
			c-0.1,0.4-0.2,0.9-0.3,1.6c-0.1,0.6-0.1,1.1-0.1,1.5c0,0.4,0,0.9,0,1.5c0,0.2,0,0.4,0,0.8c0,0.6,0,1.2,0,1.8s0.1,1.3,0.1,1.9
			c0,0.6,0.2,1.3,0.4,1.9c0.2,0.6,0.5,1.1,0.8,1.6c0.3,0.5,0.8,0.8,1.3,1.1c0.6,0.3,1.2,0.4,2,0.4c1,0,1.9-0.3,2.6-0.9
			c0.8-0.6,1.2-1.4,1.4-2.4c0-0.2,0.1-0.8,0.1-1.7h5.6V30.4z"/>
		<path fill="#FFFFFF" d="M144.5,27.5h2.7V10.5h-2.7V4h15v6.6h-1.8v5.3h5v-5.3h-1.6V4H176v6.6h-2.6v16.9h2.7v6.7h-14.9v-6.7h1.6
			v-5.1h-5v5.1h1.8l0,6.7h-15V27.5z"/>
		<path fill="#FFFFFF" d="M205.8,25.8c0.1,0.4,0.2,0.7,0.3,0.9s0.2,0.4,0.3,0.5c0.1,0.2,0.3,0.2,0.5,0.2h1.6v6.7h-15.4l0-6.7h2.2
			c0-2-0.4-3-1.2-3h-5.1c-0.2,0-0.3,0.1-0.4,0.2c-0.1,0.1-0.1,0.3-0.1,0.4c0,0.1,0,0.3,0,0.6c0,0.3,0.1,0.7,0.2,1.2
			c0.1,0.4,0.3,0.7,0.6,0.7h1.6v6.7h-12.6v-6.7c0.5,0,1,0,1.5-0.1c1-0.2,1.7-0.8,2.1-1.8c0.1-0.3,0.4-1.1,0.7-2.4l3.2-12.6h-3.9V4
			h18.5L205.8,25.8z M193.7,19.8l-2.2-9.4l-2.1,9.4H193.7z"/>
		<path fill="#FFFFFF" d="M230.2,4v9.6h-5.7c-0.2-1-0.7-1.8-1.5-2.6s-1.6-1.1-2.5-1.1c-0.5,0-1,0.1-1.3,0.4s-0.5,0.7-0.5,1.3
			c0,0.4,0.2,0.7,0.5,1c0.3,0.3,0.7,0.5,1.2,0.7s1.1,0.4,1.8,0.6c0.7,0.2,1.4,0.4,2.1,0.7s1.5,0.6,2.3,0.9c0.8,0.3,1.5,0.8,2.1,1.3
			s1.3,1.2,1.8,1.9c0.5,0.7,1,1.6,1.3,2.6c0.3,1,0.5,2.2,0.5,3.5c0,1.3-0.2,2.5-0.6,3.7c-0.4,1.2-1,2.3-1.8,3.2
			c-0.8,0.9-1.7,1.7-2.8,2.2s-2.4,0.8-3.7,0.8c-1.3,0-2.5-0.2-3.3-0.5c-0.9-0.3-1.8-0.9-2.8-1.7l-0.7,1.7h-6v-9.6h6
			c0.3,0.9,0.9,1.7,1.7,2.4c0.8,0.7,1.7,1,2.6,1c0.5,0,1-0.1,1.4-0.4c0.4-0.3,0.6-0.7,0.6-1.2c0-0.4-0.1-0.8-0.4-1.1
			s-0.6-0.5-0.9-0.7c-0.3-0.1-0.7-0.3-1.2-0.4c-0.7-0.2-1.4-0.4-1.9-0.6c-0.6-0.2-1.2-0.4-1.8-0.6c-0.6-0.2-1.2-0.5-1.7-0.8
			c-0.5-0.3-1-0.6-1.5-0.9c-0.5-0.3-0.9-0.7-1.3-1.1c-0.4-0.4-0.7-0.8-1-1.3s-0.6-1-0.8-1.6c-0.2-0.6-0.4-1.2-0.5-1.9
			c-0.1-0.7-0.2-1.5-0.2-2.3c0-2.9,0.7-5.3,2.2-7c1.4-1.7,3.5-2.6,6.3-2.6c2.4,0,4.3,0.6,5.8,1.7c0-0.1,0.2-0.5,0.6-1.1H230.2z"/>
		<path fill="#FFFFFF" d="M253.8,16.1l-1.4-5.6h-4v5.2h3.8v6.5h-3.8v5.1h4.1l0.2-1.1l1.2-5h5.1v12.8h-23.8v-6.7h2.9V10.5h-2.9V4
			h23.6v12.2L253.8,16.1z"/>
		<path fill="#F6EE3D" d="M2,68.6h2.7V51.6H2v-6.6h15v6.6h-1.8v5.3h5v-5.3h-1.6v-6.6h14.8v6.6h-2.6v16.9h2.7v6.7H18.7v-6.7h1.6v-5.1
			h-5v5.1H17l0,6.7H2V68.6z"/>
		<path fill="#F6EE3D" d="M63.2,66.9c0.1,0.4,0.2,0.7,0.3,0.9c0.1,0.2,0.2,0.4,0.3,0.5c0.1,0.2,0.3,0.2,0.5,0.2h1.6v6.7H50.5l0-6.7
			h2.2c0-2-0.4-3-1.2-3h-5.1c-0.2,0-0.3,0.1-0.4,0.2c-0.1,0.1-0.1,0.3-0.1,0.4c0,0.1,0,0.3,0,0.6c0,0.3,0.1,0.7,0.2,1.2
			c0.1,0.4,0.3,0.7,0.6,0.7h1.6v6.7H35.5v-6.7c0.5,0,1,0,1.5-0.1c1-0.2,1.7-0.8,2.1-1.8c0.1-0.3,0.4-1.1,0.7-2.4L43,51.6H39v-6.6
			h18.5L63.2,66.9z M51.1,60.9l-2.2-9.4l-2.1,9.4H51.1z"/>
		<path fill="#F6EE3D" d="M87.4,57.3l-1.2-5.7h-2v16.9h3v6.7H70.8v-6.7h3V51.6h-1.9l-1.2,5.7h-5.2V45.1h27.1v12.2H87.4z"/>
		<path fill="#F6EE3D" d="M115.9,57.3l-1.2-5.7h-2v16.9h3v6.7H99.3v-6.7h3V51.6h-1.9l-1.2,5.7h-5.2V45.1h27.1v12.2H115.9z"/>
		<path fill="#F6EE3D" d="M138.8,75.2c-3.3,0-8.3,0-15.1,0v-6.7h2.9V51.6h-2.9v-6.6h18.9c1.5,0,2.9,0.1,4,0.4
			c1.2,0.3,2.2,0.8,3.1,1.4c0.9,0.7,1.6,1.5,2,2.6c0.5,1.1,0.7,2.4,0.7,3.9c0,1.8-0.6,3.3-1.7,4.4c-1.2,1.2-2.8,1.9-4.9,2.3
			c1.8,0.4,3.2,1,4,1.8c0.8,0.8,1.2,1.7,1.2,2.8v1.7c0,0.4,0,0.6,0.1,0.9c0.1,0.2,0.2,0.4,0.4,0.6c0.2,0.2,0.5,0.3,0.9,0.4
			c0.4,0.1,1,0.1,1.7,0.1v6.7h-4.9c-0.5,0-0.9,0-1.1,0c-0.3,0-0.7,0-1.1,0s-0.8-0.1-1.1-0.1c-0.3-0.1-0.6-0.1-1-0.3
			c-0.4-0.1-0.7-0.2-0.9-0.4c-0.2-0.2-0.5-0.4-0.8-0.6c-0.3-0.2-0.5-0.5-0.6-0.8c-0.1-0.3-0.3-0.7-0.4-1.1c-0.1-0.4-0.1-0.9-0.1-1.4
			v-3.6c0-0.7,0-1.3-0.1-1.8c-0.1-0.5-0.2-1-0.5-1.4c-0.2-0.4-0.6-0.8-1.1-1c-0.5-0.2-1.1-0.3-1.8-0.3h-1.8v6.2h2.2V75.2z
			 M137.6,58.1c0.6,0,1.2,0,1.7-0.1s1-0.3,1.5-0.5c0.5-0.2,0.8-0.6,1.1-1c0.3-0.4,0.4-1,0.4-1.6c0-1-0.3-1.8-0.9-2.4
			c-0.6-0.6-1.5-0.9-2.6-0.9h-2.3v6.5H137.6z"/>
		<path fill="#F6EE3D" d="M172.8,51.6H170v16.9h2.6v6.7h-16v-6.7h2.7V51.6h-2.7v-6.6h16.1V51.6z"/>
		<path fill="#F6EE3D" d="M201.3,71.5l-0.5,0.4c-0.4,0.3-0.9,0.7-1.6,1.1c-0.7,0.4-1.5,0.8-2.4,1.3c-0.9,0.4-2,0.8-3.3,1.1
			c-1.3,0.3-2.6,0.4-3.9,0.4c-3.1,0-5.7-0.7-7.9-2c-2.2-1.3-3.8-3.1-4.8-5.4c-1.1-2.3-1.6-5-1.6-8.1c0-1.6,0.1-3.1,0.4-4.6
			s0.8-2.9,1.4-4.3c0.7-1.4,1.5-2.6,2.4-3.6s2.2-1.8,3.6-2.4s3-0.9,4.8-0.9c0.9,0,1.7,0,2.4,0.1c0.7,0.1,1.4,0.2,2.2,0.5
			s1.5,0.7,2.1,1.2l0.6-1.3h5.8l0,11.8h-5.5c0-0.7-0.1-1.3-0.2-1.9c-0.1-0.6-0.4-1.2-0.7-1.8c-0.3-0.6-0.8-1-1.4-1.3
			s-1.3-0.5-2.1-0.5c-0.6,0-1.1,0.1-1.6,0.3s-0.8,0.4-1.2,0.7c-0.3,0.3-0.6,0.7-0.8,1.2c-0.2,0.5-0.4,0.9-0.5,1.3
			c-0.1,0.4-0.2,0.9-0.3,1.6c-0.1,0.6-0.1,1.1-0.1,1.5c0,0.4,0,0.9,0,1.5c0,0.2,0,0.4,0,0.8c0,0.6,0,1.2,0,1.8s0.1,1.3,0.1,1.9
			c0,0.6,0.2,1.3,0.4,1.9c0.2,0.6,0.5,1.1,0.8,1.6c0.3,0.5,0.8,0.8,1.3,1.1c0.6,0.3,1.2,0.4,2,0.4c1,0,1.9-0.3,2.6-0.9
			c0.8-0.6,1.2-1.4,1.4-2.4c0-0.2,0.1-0.8,0.1-1.7h5.6V71.5z"/>
		<path fill="#F6EE3D" d="M204.8,45.1h15.3v6.5h-2.4v7.1l5.3-7.1v-6.5l11.6,0v6.6h-2.5l-5.9,7.5v0.3c1,0,1.8,0.1,2.6,0.2
			c0.7,0.1,1.4,0.4,2,0.7c0.6,0.3,1.1,0.8,1.4,1.4c0.3,0.6,0.5,1.4,0.5,2.2v2.6c0,0.4,0.1,0.9,0.3,1.3c0.2,0.4,0.5,0.6,0.9,0.6h1.7
			l0.1,6.7h-6.5c-4.2,0-6.2-1.9-6.2-5.7v-3.4c0-0.6-0.2-1.2-0.6-1.8c-0.4-0.6-0.9-0.9-1.5-0.9h-3.2v5.2h2.4l0.1,6v0.7h-15.4v-6.7
			h2.7V51.6h-2.7V45.1z"/>
		<path fill="#F6EE3D" d="M257.9,45.1v9.6h-5.7c-0.2-1-0.7-1.8-1.5-2.6s-1.6-1.1-2.5-1.1c-0.5,0-1,0.1-1.3,0.4s-0.5,0.7-0.5,1.3
			c0,0.4,0.2,0.7,0.5,1c0.3,0.3,0.7,0.5,1.2,0.7s1.1,0.4,1.8,0.6c0.7,0.2,1.4,0.4,2.1,0.7s1.5,0.6,2.3,0.9c0.8,0.3,1.5,0.8,2.1,1.3
			s1.3,1.2,1.8,1.9c0.5,0.7,1,1.6,1.3,2.6c0.3,1,0.5,2.2,0.5,3.5c0,1.3-0.2,2.5-0.6,3.7c-0.4,1.2-1,2.3-1.8,3.2
			c-0.8,0.9-1.7,1.7-2.8,2.2s-2.4,0.8-3.7,0.8c-1.3,0-2.5-0.2-3.3-0.5c-0.9-0.3-1.8-0.9-2.8-1.7l-0.7,1.7h-6v-9.6h6
			c0.3,0.9,0.9,1.7,1.7,2.4c0.8,0.7,1.7,1,2.6,1c0.5,0,1-0.1,1.4-0.4c0.4-0.3,0.6-0.7,0.6-1.2c0-0.4-0.1-0.8-0.4-1.1
			s-0.6-0.5-0.9-0.7c-0.3-0.1-0.7-0.3-1.2-0.4c-0.7-0.2-1.4-0.4-1.9-0.6c-0.6-0.2-1.2-0.4-1.8-0.6c-0.6-0.2-1.2-0.5-1.7-0.8
			c-0.5-0.3-1-0.6-1.5-0.9c-0.5-0.3-0.9-0.7-1.3-1.1c-0.4-0.4-0.7-0.8-1-1.3s-0.6-1-0.8-1.6c-0.2-0.6-0.4-1.2-0.5-1.9
			c-0.1-0.7-0.2-1.5-0.2-2.3c0-2.9,0.7-5.3,2.2-7c1.4-1.7,3.5-2.6,6.3-2.6c2.4,0,4.3,0.6,5.8,1.7c0-0.1,0.2-0.5,0.6-1.1H257.9z"/>
		<path fill="#FFFFFF" d="M162.2,114.5c-1.8,1.6-4.2,2.4-7.3,2.4c-1.8,0-3.5-0.2-5.1-0.7s-3.1-1.1-4.4-1.9s-2.4-1.9-3.4-3.1
			c-1-1.2-1.7-2.6-2.2-4.3s-0.8-3.4-0.8-5.3c0-2.2,0.3-4.3,1-6.2c0.7-1.9,1.6-3.6,2.8-5.1c1.2-1.5,2.8-2.6,4.7-3.5
			c1.9-0.8,4.1-1.3,6.4-1.3c2.5,0,4.6,0.6,6.2,1.7l0.8-1.2h5.9v12.6h-5.4c-0.1-0.8-0.2-1.4-0.3-1.9c-0.1-0.5-0.3-1.1-0.5-1.7
			c-0.2-0.6-0.5-1.1-0.9-1.4c-0.4-0.4-0.8-0.6-1.4-0.9c-0.6-0.2-1.3-0.3-2.1-0.3c-0.9,0-1.6,0.1-2.3,0.4c-0.7,0.3-1.2,0.7-1.6,1.2
			c-0.4,0.5-0.8,1.1-1.1,1.7c-0.3,0.6-0.5,1.3-0.6,2.1c-0.1,0.8-0.2,1.5-0.3,2.2c0,0.7-0.1,1.4-0.1,2.1c0,5.5,2,8.2,5.9,8.2
			c0.9,0,1.8-0.3,2.5-0.8c0.7-0.5,1.1-1.2,1.1-2.1c0-0.6,0-1.1-0.1-1.5l-3,0v-5.7h11.6v16H163L162.2,114.5z"/>
		<path fill="#FFFFFF" d="M190.4,98.4l-1.4-5.6h-4V98h3.8v6.5H185v5.1h4.1l0.2-1.1l1.2-5h5.1v12.8h-23.8v-6.7h2.9V92.8h-2.9v-6.6
			h23.6v12.2L190.4,98.4z"/>
		<path fill="#FFFFFF" d="M225.4,108.1c0.1,0.4,0.2,0.7,0.3,0.9s0.2,0.4,0.3,0.5c0.1,0.2,0.3,0.2,0.5,0.2h1.6v6.7h-15.4l0-6.7h2.2
			c0-2-0.4-3-1.2-3h-5.1c-0.2,0-0.3,0.1-0.4,0.2s-0.1,0.3-0.1,0.4c0,0.1,0,0.3,0,0.6c0,0.3,0.1,0.7,0.2,1.2c0.1,0.4,0.3,0.7,0.6,0.7
			h1.6v6.7h-12.6v-6.7c0.5,0,1,0,1.5-0.1c1-0.2,1.7-0.8,2.1-1.8c0.1-0.3,0.4-1.1,0.7-2.4l3.2-12.6h-3.9v-6.6h18.5L225.4,108.1z
			 M213.3,102l-2.2-9.4L209,102H213.3z"/>
		<path fill="#FFFFFF" d="M245.2,116.4c-3.3,0-8.3,0-15.1,0v-6.7h2.9V92.8h-2.9v-6.6H249c1.5,0,2.9,0.1,4,0.4s2.2,0.8,3.1,1.4
			s1.6,1.5,2,2.6c0.5,1.1,0.7,2.4,0.7,3.9c0,1.8-0.6,3.3-1.7,4.4c-1.2,1.2-2.8,1.9-4.9,2.3c1.8,0.4,3.2,1,4,1.8
			c0.8,0.8,1.2,1.7,1.2,2.8v1.7c0,0.4,0,0.6,0.1,0.9s0.2,0.4,0.4,0.6s0.5,0.3,0.9,0.4c0.4,0.1,1,0.1,1.7,0.1v6.7h-4.9
			c-0.5,0-0.9,0-1.1,0c-0.3,0-0.7,0-1.1,0s-0.8-0.1-1.1-0.1s-0.6-0.1-1-0.3s-0.7-0.2-0.9-0.4s-0.5-0.4-0.8-0.6
			c-0.3-0.2-0.5-0.5-0.6-0.8c-0.1-0.3-0.3-0.7-0.4-1.1c-0.1-0.4-0.1-0.9-0.1-1.4V108c0-0.7,0-1.3-0.1-1.8c-0.1-0.5-0.2-1-0.5-1.4
			c-0.2-0.4-0.6-0.8-1.1-1c-0.5-0.2-1.1-0.3-1.8-0.3h-1.8v6.2h2.2V116.4z M243.9,99.3c0.6,0,1.2,0,1.7-0.1c0.5-0.1,1-0.3,1.5-0.5
			c0.5-0.2,0.8-0.6,1.1-1c0.3-0.4,0.4-1,0.4-1.6c0-1-0.3-1.8-0.9-2.4s-1.5-0.9-2.6-0.9h-2.2v6.5H243.9z"/>
	</g>
</g>
</svg>
